%TF.GenerationSoftware,KiCad,Pcbnew,8.0.3*%
%TF.CreationDate,2024-07-26T12:19:11-07:00*%
%TF.ProjectId,A6214 Test Board,41363231-3420-4546-9573-7420426f6172,rev?*%
%TF.SameCoordinates,Original*%
%TF.FileFunction,Copper,L1,Top*%
%TF.FilePolarity,Positive*%
%FSLAX46Y46*%
G04 Gerber Fmt 4.6, Leading zero omitted, Abs format (unit mm)*
G04 Created by KiCad (PCBNEW 8.0.3) date 2024-07-26 12:19:11*
%MOMM*%
%LPD*%
G01*
G04 APERTURE LIST*
G04 Aperture macros list*
%AMRoundRect*
0 Rectangle with rounded corners*
0 $1 Rounding radius*
0 $2 $3 $4 $5 $6 $7 $8 $9 X,Y pos of 4 corners*
0 Add a 4 corners polygon primitive as box body*
4,1,4,$2,$3,$4,$5,$6,$7,$8,$9,$2,$3,0*
0 Add four circle primitives for the rounded corners*
1,1,$1+$1,$2,$3*
1,1,$1+$1,$4,$5*
1,1,$1+$1,$6,$7*
1,1,$1+$1,$8,$9*
0 Add four rect primitives between the rounded corners*
20,1,$1+$1,$2,$3,$4,$5,0*
20,1,$1+$1,$4,$5,$6,$7,0*
20,1,$1+$1,$6,$7,$8,$9,0*
20,1,$1+$1,$8,$9,$2,$3,0*%
G04 Aperture macros list end*
%TA.AperFunction,ComponentPad*%
%ADD10R,1.700000X1.700000*%
%TD*%
%TA.AperFunction,ComponentPad*%
%ADD11O,1.700000X1.700000*%
%TD*%
%TA.AperFunction,SMDPad,CuDef*%
%ADD12RoundRect,0.237500X-0.237500X0.250000X-0.237500X-0.250000X0.237500X-0.250000X0.237500X0.250000X0*%
%TD*%
%TA.AperFunction,SMDPad,CuDef*%
%ADD13RoundRect,0.225000X-0.225000X-0.250000X0.225000X-0.250000X0.225000X0.250000X-0.225000X0.250000X0*%
%TD*%
%TA.AperFunction,SMDPad,CuDef*%
%ADD14RoundRect,0.237500X0.250000X0.237500X-0.250000X0.237500X-0.250000X-0.237500X0.250000X-0.237500X0*%
%TD*%
%TA.AperFunction,SMDPad,CuDef*%
%ADD15RoundRect,0.225000X0.225000X0.250000X-0.225000X0.250000X-0.225000X-0.250000X0.225000X-0.250000X0*%
%TD*%
%TA.AperFunction,SMDPad,CuDef*%
%ADD16RoundRect,0.250000X-0.450000X0.350000X-0.450000X-0.350000X0.450000X-0.350000X0.450000X0.350000X0*%
%TD*%
%TA.AperFunction,SMDPad,CuDef*%
%ADD17R,1.525000X0.600000*%
%TD*%
%TA.AperFunction,SMDPad,CuDef*%
%ADD18R,2.410000X3.300000*%
%TD*%
%TA.AperFunction,TestPad*%
%ADD19C,1.100000*%
%TD*%
%TA.AperFunction,SMDPad,CuDef*%
%ADD20R,3.300000X0.500000*%
%TD*%
%TA.AperFunction,SMDPad,CuDef*%
%ADD21R,3.300000X1.300000*%
%TD*%
%TA.AperFunction,SMDPad,CuDef*%
%ADD22RoundRect,0.225000X-0.250000X0.225000X-0.250000X-0.225000X0.250000X-0.225000X0.250000X0.225000X0*%
%TD*%
%TA.AperFunction,SMDPad,CuDef*%
%ADD23RoundRect,0.112500X0.112500X-0.187500X0.112500X0.187500X-0.112500X0.187500X-0.112500X-0.187500X0*%
%TD*%
%TA.AperFunction,ComponentPad*%
%ADD24R,1.800000X1.800000*%
%TD*%
%TA.AperFunction,ComponentPad*%
%ADD25C,1.800000*%
%TD*%
%TA.AperFunction,SMDPad,CuDef*%
%ADD26RoundRect,0.237500X-0.250000X-0.237500X0.250000X-0.237500X0.250000X0.237500X-0.250000X0.237500X0*%
%TD*%
%TA.AperFunction,SMDPad,CuDef*%
%ADD27RoundRect,0.445000X-0.445000X-1.335000X0.445000X-1.335000X0.445000X1.335000X-0.445000X1.335000X0*%
%TD*%
%TA.AperFunction,Conductor*%
%ADD28C,0.200000*%
%TD*%
%TA.AperFunction,Conductor*%
%ADD29C,1.000000*%
%TD*%
%TA.AperFunction,Conductor*%
%ADD30C,0.500000*%
%TD*%
%TA.AperFunction,Conductor*%
%ADD31C,0.600000*%
%TD*%
%TA.AperFunction,Conductor*%
%ADD32C,0.250000*%
%TD*%
G04 APERTURE END LIST*
D10*
%TO.P,J3,1,Pin_1*%
%TO.N,Net-(J3-Pin_1)*%
X143890000Y-109670000D03*
D11*
%TO.P,J3,2,Pin_2*%
%TO.N,Net-(D2-A)*%
X143890000Y-107130000D03*
%TD*%
D10*
%TO.P,J2,1,Pin_1*%
%TO.N,Net-(J2-Pin_1)*%
X150040000Y-109670000D03*
D11*
%TO.P,J2,2,Pin_2*%
%TO.N,Net-(D2-A)*%
X150040000Y-107130000D03*
%TD*%
D10*
%TO.P,J1,1,Pin_1*%
%TO.N,Net-(J1-Pin_1)*%
X155490000Y-109670000D03*
D11*
%TO.P,J1,2,Pin_2*%
%TO.N,Net-(D2-A)*%
X155490000Y-107130000D03*
%TD*%
D12*
%TO.P,R6,2*%
%TO.N,GND*%
X140730000Y-105532500D03*
%TO.P,R6,1*%
%TO.N,Net-(IC1-ADIM)*%
X140730000Y-103707500D03*
%TD*%
D13*
%TO.P,C5,1*%
%TO.N,Net-(IC1-VCC)*%
X145025000Y-99625000D03*
%TO.P,C5,2*%
%TO.N,GND*%
X146575000Y-99625000D03*
%TD*%
D14*
%TO.P,R1,1*%
%TO.N,Net-(IC1-VIN)*%
X139375000Y-90250000D03*
%TO.P,R1,2*%
%TO.N,Net-(IC1-TON)*%
X137550000Y-90250000D03*
%TD*%
D15*
%TO.P,C7,1*%
%TO.N,Net-(IC1-VIN)*%
X131825000Y-94690000D03*
%TO.P,C7,2*%
%TO.N,GND*%
X130275000Y-94690000D03*
%TD*%
D13*
%TO.P,C2,1*%
%TO.N,Net-(IC1-VCC)*%
X145025000Y-103725000D03*
%TO.P,C2,2*%
%TO.N,GND*%
X146575000Y-103725000D03*
%TD*%
D15*
%TO.P,C6,1*%
%TO.N,Net-(IC1-VIN)*%
X131825000Y-90910000D03*
%TO.P,C6,2*%
%TO.N,GND*%
X130275000Y-90910000D03*
%TD*%
D16*
%TO.P,R3,1*%
%TO.N,Net-(IC1-CSH)*%
X164915000Y-94650000D03*
%TO.P,R3,2*%
%TO.N,Net-(D2-A)*%
X164915000Y-96650000D03*
%TD*%
D17*
%TO.P,IC1,1,VIN*%
%TO.N,Net-(IC1-VIN)*%
X147401000Y-92650000D03*
%TO.P,IC1,2,TON*%
%TO.N,Net-(IC1-TON)*%
X147401000Y-93650000D03*
%TO.P,IC1,3,EN/PWM*%
%TO.N,Net-(IC1-EN{slash}PWM)*%
X147401000Y-94650000D03*
%TO.P,IC1,4,ADIM*%
%TO.N,Net-(IC1-ADIM)*%
X147401000Y-95650000D03*
%TO.P,IC1,5,VCC*%
%TO.N,Net-(IC1-VCC)*%
X147401000Y-96650000D03*
%TO.P,IC1,6,GND_1*%
%TO.N,GND*%
X152825000Y-96650000D03*
%TO.P,IC1,7,CSL*%
%TO.N,Net-(D2-A)*%
X152825000Y-95650000D03*
%TO.P,IC1,8,CSH*%
%TO.N,Net-(IC1-CSH)*%
X152825000Y-94650000D03*
%TO.P,IC1,9,BOOT*%
%TO.N,Net-(IC1-BOOT)*%
X152825000Y-93650000D03*
%TO.P,IC1,10,SW*%
%TO.N,Net-(D1-K)*%
X152825000Y-92650000D03*
D18*
%TO.P,IC1,11,GND_2*%
%TO.N,GND*%
X150113000Y-94650000D03*
%TD*%
D19*
%TO.P,TP2,1,1*%
%TO.N,GND*%
X137070000Y-110140000D03*
%TD*%
D15*
%TO.P,C1,1*%
%TO.N,Net-(IC1-VIN)*%
X131795000Y-87130000D03*
%TO.P,C1,2*%
%TO.N,GND*%
X130245000Y-87130000D03*
%TD*%
D20*
%TO.P,D2,1,K*%
%TO.N,Net-(D2-K)*%
X164910000Y-104440000D03*
%TO.P,D2,2,A*%
%TO.N,Net-(D2-A)*%
X164910000Y-101640000D03*
D21*
%TO.P,D2,3,PAD*%
%TO.N,GND*%
X164910000Y-103040000D03*
%TD*%
D19*
%TO.P,TP3,1,1*%
%TO.N,Net-(IC1-CSH)*%
X175140000Y-85550000D03*
%TD*%
D22*
%TO.P,C3,1*%
%TO.N,Net-(D1-K)*%
X162800000Y-91025000D03*
%TO.P,C3,2*%
%TO.N,Net-(IC1-BOOT)*%
X162800000Y-92575000D03*
%TD*%
D20*
%TO.P,D3,1,K*%
%TO.N,GND*%
X164910000Y-115640000D03*
%TO.P,D3,2,A*%
%TO.N,Net-(D3-A)*%
X164910000Y-112840000D03*
D21*
%TO.P,D3,3,PAD*%
%TO.N,GND*%
X164910000Y-114240000D03*
%TD*%
D16*
%TO.P,R2,1*%
%TO.N,Net-(IC1-CSH)*%
X169640000Y-94650000D03*
%TO.P,R2,2*%
%TO.N,Net-(D2-A)*%
X169640000Y-96650000D03*
%TD*%
D19*
%TO.P,TP1,1,1*%
%TO.N,Net-(D2-A)*%
X169570000Y-101200000D03*
%TD*%
D15*
%TO.P,C10,1*%
%TO.N,Net-(IC1-VIN)*%
X131815000Y-83350000D03*
%TO.P,C10,2*%
%TO.N,GND*%
X130265000Y-83350000D03*
%TD*%
D22*
%TO.P,C4,1*%
%TO.N,Net-(J1-Pin_1)*%
X155490000Y-113885000D03*
%TO.P,C4,2*%
%TO.N,GND*%
X155490000Y-115435000D03*
%TD*%
D23*
%TO.P,D1,1,K*%
%TO.N,Net-(D1-K)*%
X157575000Y-91825000D03*
%TO.P,D1,2,A*%
%TO.N,GND*%
X157575000Y-89725000D03*
%TD*%
D22*
%TO.P,C9,1*%
%TO.N,Net-(J3-Pin_1)*%
X143890000Y-113885000D03*
%TO.P,C9,2*%
%TO.N,GND*%
X143890000Y-115435000D03*
%TD*%
D24*
%TO.P,J5,1,Pin_1*%
%TO.N,GND*%
X146470000Y-83350000D03*
D25*
%TO.P,J5,2,Pin_2*%
%TO.N,Net-(IC1-VIN)*%
X142970000Y-83350000D03*
%TD*%
D19*
%TO.P,TP4,1,1*%
%TO.N,Net-(D1-K)*%
X148925000Y-87350000D03*
%TD*%
D26*
%TO.P,R5,1*%
%TO.N,Net-(IC1-VIN)*%
X135512500Y-94675000D03*
%TO.P,R5,2*%
%TO.N,Net-(IC1-EN{slash}PWM)*%
X137337500Y-94675000D03*
%TD*%
D27*
%TO.P,L1,2*%
%TO.N,Net-(IC1-CSH)*%
X168925000Y-81175000D03*
%TO.P,L1,1*%
%TO.N,Net-(D1-K)*%
X159525000Y-81175000D03*
%TD*%
D22*
%TO.P,C8,2*%
%TO.N,GND*%
X150040000Y-115435000D03*
%TO.P,C8,1*%
%TO.N,Net-(J2-Pin_1)*%
X150040000Y-113885000D03*
%TD*%
D24*
%TO.P,J4,1,Pin_1*%
%TO.N,GND*%
X134620000Y-100210000D03*
D25*
%TO.P,J4,2,Pin_2*%
%TO.N,Net-(IC1-ADIM)*%
X134620000Y-103710000D03*
%TD*%
D20*
%TO.P,D4,1,K*%
%TO.N,Net-(D3-A)*%
X164910000Y-110265000D03*
%TO.P,D4,2,A*%
%TO.N,Net-(D2-K)*%
X164910000Y-107465000D03*
D21*
%TO.P,D4,3,PAD*%
%TO.N,GND*%
X164910000Y-108865000D03*
%TD*%
D14*
%TO.P,R4,1*%
%TO.N,Net-(IC1-VIN)*%
X139375000Y-86300000D03*
%TO.P,R4,2*%
%TO.N,Net-(IC1-TON)*%
X137550000Y-86300000D03*
%TD*%
D28*
%TO.N,Net-(J3-Pin_1)*%
X143890000Y-109670000D02*
X143890000Y-113885000D01*
%TO.N,Net-(J1-Pin_1)*%
X155490000Y-109670000D02*
X155490000Y-113885000D01*
%TO.N,Net-(J2-Pin_1)*%
X150040000Y-109670000D02*
X150040000Y-113885000D01*
D29*
%TO.N,Net-(IC1-VIN)*%
X135250000Y-83350000D02*
X142970000Y-83350000D01*
X133170000Y-85430000D02*
X135250000Y-83350000D01*
X131830000Y-85430000D02*
X133170000Y-85430000D01*
D28*
%TO.N,Net-(IC1-ADIM)*%
X145090000Y-95650000D02*
X140730000Y-100010000D01*
X140730000Y-100010000D02*
X140730000Y-103707500D01*
D29*
X137030000Y-103710000D02*
X134620000Y-103710000D01*
X145090000Y-95650000D02*
X137030000Y-103710000D01*
D28*
%TO.N,Net-(IC1-CSH)*%
X171340000Y-85550000D02*
X171330000Y-85560000D01*
D30*
X175140000Y-85550000D02*
X171340000Y-85550000D01*
X171330000Y-81990000D02*
X171330000Y-85860000D01*
X170515000Y-81175000D02*
X171330000Y-81990000D01*
X168925000Y-81175000D02*
X170515000Y-81175000D01*
X169640000Y-89710000D02*
X169640000Y-94650000D01*
X171330000Y-88020000D02*
X169640000Y-89710000D01*
X171330000Y-85560000D02*
X171330000Y-88020000D01*
D28*
%TO.N,Net-(IC1-VCC)*%
X145025000Y-97875000D02*
X145025000Y-99625000D01*
X146250000Y-96650000D02*
X145025000Y-97875000D01*
X147401000Y-96650000D02*
X146250000Y-96650000D01*
X145025000Y-103725000D02*
X145025000Y-99625000D01*
%TO.N,Net-(IC1-BOOT)*%
X152825000Y-93650000D02*
X159475000Y-93650000D01*
X160550000Y-92575000D02*
X162800000Y-92575000D01*
X159475000Y-93650000D02*
X160550000Y-92575000D01*
D30*
%TO.N,Net-(D1-K)*%
X152825000Y-92650000D02*
X154575000Y-92650000D01*
X154650000Y-84400000D02*
X157875000Y-81175000D01*
X159750000Y-91825000D02*
X160550000Y-91025000D01*
X154675000Y-92650000D02*
X154675000Y-89025000D01*
X154575000Y-92650000D02*
X154675000Y-92650000D01*
X154675000Y-92650000D02*
X154950000Y-92650000D01*
X155775000Y-91825000D02*
X157575000Y-91825000D01*
X153000000Y-87350000D02*
X148925000Y-87350000D01*
X157875000Y-81175000D02*
X159525000Y-81175000D01*
X157575000Y-91825000D02*
X159750000Y-91825000D01*
X160550000Y-91025000D02*
X162800000Y-91025000D01*
X154650000Y-89000000D02*
X154650000Y-84400000D01*
X154950000Y-92650000D02*
X155775000Y-91825000D01*
X154675000Y-89025000D02*
X153000000Y-87350000D01*
X154675000Y-89025000D02*
X154650000Y-89000000D01*
%TO.N,Net-(D2-A)*%
X155400000Y-96610000D02*
X155485000Y-96695000D01*
D31*
X164910000Y-101640000D02*
X164910000Y-99960000D01*
D30*
X154440000Y-95650000D02*
X152825000Y-95650000D01*
D31*
X164910000Y-96655000D02*
X164915000Y-96650000D01*
D30*
X150006552Y-107130000D02*
X155456552Y-107130000D01*
X155485000Y-96695000D02*
X155530000Y-96650000D01*
D31*
X169570000Y-101200000D02*
X168330000Y-99960000D01*
D30*
X155490000Y-107130000D02*
X155485000Y-107125000D01*
X155490000Y-96700000D02*
X155490000Y-107130000D01*
X155530000Y-96650000D02*
X164915000Y-96650000D01*
D31*
X164910000Y-99960000D02*
X164910000Y-96655000D01*
D30*
X144556552Y-107130000D02*
X150006552Y-107130000D01*
X164915000Y-96650000D02*
X169640000Y-96650000D01*
X155400000Y-96610000D02*
X154440000Y-95650000D01*
D31*
X168330000Y-99960000D02*
X164910000Y-99960000D01*
D28*
X169640000Y-96680000D02*
X169615000Y-96705000D01*
D30*
X155485000Y-96695000D02*
X155490000Y-96700000D01*
D31*
%TO.N,Net-(D2-K)*%
X164910000Y-104440000D02*
X164910000Y-107465000D01*
%TO.N,Net-(D3-A)*%
X164910000Y-110265000D02*
X164910000Y-112840000D01*
D30*
%TO.N,Net-(IC1-CSH)*%
X164915000Y-94650000D02*
X169640000Y-94650000D01*
X152825000Y-94650000D02*
X164915000Y-94650000D01*
D28*
%TO.N,Net-(IC1-EN{slash}PWM)*%
X137337500Y-94675000D02*
X147376000Y-94675000D01*
X147376000Y-94675000D02*
X147401000Y-94650000D01*
D32*
%TO.N,Net-(IC1-TON)*%
X140250000Y-93650000D02*
X147401000Y-93650000D01*
X137550000Y-86300000D02*
X137550000Y-90250000D01*
X137550000Y-90950000D02*
X140250000Y-93650000D01*
X137550000Y-90250000D02*
X137550000Y-90950000D01*
D29*
%TO.N,Net-(IC1-ADIM)*%
X145090000Y-95650000D02*
X147401000Y-95650000D01*
%TO.N,Net-(IC1-VIN)*%
X139375000Y-90250000D02*
X139375000Y-91100000D01*
X139375000Y-86300000D02*
X139375000Y-90250000D01*
X139375000Y-91100000D02*
X140925000Y-92650000D01*
X139375000Y-83350000D02*
X139375000Y-86300000D01*
X140925000Y-92650000D02*
X147401000Y-92650000D01*
%TD*%
%TA.AperFunction,Conductor*%
%TO.N,GND*%
G36*
X179542539Y-75360185D02*
G01*
X179588294Y-75412989D01*
X179599500Y-75464500D01*
X179599500Y-118520500D01*
X179579815Y-118587539D01*
X179527011Y-118633294D01*
X179475500Y-118644500D01*
X126709500Y-118644500D01*
X126642461Y-118624815D01*
X126596706Y-118572011D01*
X126585500Y-118520500D01*
X126585500Y-115708322D01*
X142915001Y-115708322D01*
X142925144Y-115807607D01*
X142978452Y-115968481D01*
X142978457Y-115968492D01*
X143067424Y-116112728D01*
X143067427Y-116112732D01*
X143187267Y-116232572D01*
X143187271Y-116232575D01*
X143331507Y-116321542D01*
X143331518Y-116321547D01*
X143492393Y-116374855D01*
X143591683Y-116384999D01*
X144140000Y-116384999D01*
X144188308Y-116384999D01*
X144188322Y-116384998D01*
X144287607Y-116374855D01*
X144448481Y-116321547D01*
X144448492Y-116321542D01*
X144592728Y-116232575D01*
X144592732Y-116232572D01*
X144712572Y-116112732D01*
X144712575Y-116112728D01*
X144801542Y-115968492D01*
X144801547Y-115968481D01*
X144854855Y-115807606D01*
X144864999Y-115708322D01*
X149065001Y-115708322D01*
X149075144Y-115807607D01*
X149128452Y-115968481D01*
X149128457Y-115968492D01*
X149217424Y-116112728D01*
X149217427Y-116112732D01*
X149337267Y-116232572D01*
X149337271Y-116232575D01*
X149481507Y-116321542D01*
X149481518Y-116321547D01*
X149642393Y-116374855D01*
X149741683Y-116384999D01*
X150290000Y-116384999D01*
X150338308Y-116384999D01*
X150338322Y-116384998D01*
X150437607Y-116374855D01*
X150598481Y-116321547D01*
X150598492Y-116321542D01*
X150742728Y-116232575D01*
X150742732Y-116232572D01*
X150862572Y-116112732D01*
X150862575Y-116112728D01*
X150951542Y-115968492D01*
X150951547Y-115968481D01*
X151004855Y-115807606D01*
X151014999Y-115708322D01*
X154515001Y-115708322D01*
X154525144Y-115807607D01*
X154578452Y-115968481D01*
X154578457Y-115968492D01*
X154667424Y-116112728D01*
X154667427Y-116112732D01*
X154787267Y-116232572D01*
X154787271Y-116232575D01*
X154931507Y-116321542D01*
X154931518Y-116321547D01*
X155092393Y-116374855D01*
X155191683Y-116384999D01*
X155740000Y-116384999D01*
X155788308Y-116384999D01*
X155788322Y-116384998D01*
X155887607Y-116374855D01*
X156048481Y-116321547D01*
X156048492Y-116321542D01*
X156192728Y-116232575D01*
X156192732Y-116232572D01*
X156312572Y-116112732D01*
X156312575Y-116112728D01*
X156401542Y-115968492D01*
X156401547Y-115968481D01*
X156411699Y-115937844D01*
X162760000Y-115937844D01*
X162766401Y-115997372D01*
X162766403Y-115997379D01*
X162816645Y-116132086D01*
X162816649Y-116132093D01*
X162902809Y-116247187D01*
X162902812Y-116247190D01*
X163017906Y-116333350D01*
X163017913Y-116333354D01*
X163152620Y-116383596D01*
X163152627Y-116383598D01*
X163212155Y-116389999D01*
X163212172Y-116390000D01*
X164660000Y-116390000D01*
X165160000Y-116390000D01*
X166607828Y-116390000D01*
X166607844Y-116389999D01*
X166667372Y-116383598D01*
X166667379Y-116383596D01*
X166802086Y-116333354D01*
X166802093Y-116333350D01*
X166917187Y-116247190D01*
X166917190Y-116247187D01*
X167003350Y-116132093D01*
X167003354Y-116132086D01*
X167053596Y-115997379D01*
X167053598Y-115997372D01*
X167059999Y-115937844D01*
X167060000Y-115937827D01*
X167060000Y-115890000D01*
X165160000Y-115890000D01*
X165160000Y-116390000D01*
X164660000Y-116390000D01*
X164660000Y-115890000D01*
X162760000Y-115890000D01*
X162760000Y-115937844D01*
X156411699Y-115937844D01*
X156454855Y-115807606D01*
X156464999Y-115708322D01*
X156465000Y-115708309D01*
X156465000Y-115685000D01*
X155740000Y-115685000D01*
X155740000Y-116384999D01*
X155191683Y-116384999D01*
X155239999Y-116384998D01*
X155240000Y-116384998D01*
X155240000Y-115685000D01*
X154515001Y-115685000D01*
X154515001Y-115708322D01*
X151014999Y-115708322D01*
X151015000Y-115708309D01*
X151015000Y-115685000D01*
X150290000Y-115685000D01*
X150290000Y-116384999D01*
X149741683Y-116384999D01*
X149789999Y-116384998D01*
X149790000Y-116384998D01*
X149790000Y-115685000D01*
X149065001Y-115685000D01*
X149065001Y-115708322D01*
X144864999Y-115708322D01*
X144865000Y-115708309D01*
X144865000Y-115685000D01*
X144140000Y-115685000D01*
X144140000Y-116384999D01*
X143591683Y-116384999D01*
X143639999Y-116384998D01*
X143640000Y-116384998D01*
X143640000Y-115685000D01*
X142915001Y-115685000D01*
X142915001Y-115708322D01*
X126585500Y-115708322D01*
X126585500Y-110140000D01*
X136014919Y-110140000D01*
X136035191Y-110345834D01*
X136095233Y-110543766D01*
X136170975Y-110685469D01*
X136170976Y-110685469D01*
X136695000Y-110161446D01*
X136695000Y-110189370D01*
X136720556Y-110284745D01*
X136769925Y-110370255D01*
X136839745Y-110440075D01*
X136925255Y-110489444D01*
X137020630Y-110515000D01*
X137048553Y-110515000D01*
X136524528Y-111039023D01*
X136666233Y-111114766D01*
X136864165Y-111174808D01*
X137070000Y-111195080D01*
X137275834Y-111174808D01*
X137473764Y-111114766D01*
X137615470Y-111039022D01*
X137091448Y-110515000D01*
X137119370Y-110515000D01*
X137214745Y-110489444D01*
X137300255Y-110440075D01*
X137370075Y-110370255D01*
X137419444Y-110284745D01*
X137445000Y-110189370D01*
X137445000Y-110161447D01*
X137969022Y-110685469D01*
X138044766Y-110543764D01*
X138104808Y-110345834D01*
X138125080Y-110140000D01*
X138104808Y-109934165D01*
X138044766Y-109736233D01*
X137969023Y-109594528D01*
X137445000Y-110118551D01*
X137445000Y-110090630D01*
X137419444Y-109995255D01*
X137370075Y-109909745D01*
X137300255Y-109839925D01*
X137214745Y-109790556D01*
X137119370Y-109765000D01*
X137091448Y-109765000D01*
X137615469Y-109240976D01*
X137615469Y-109240975D01*
X137473766Y-109165233D01*
X137275834Y-109105191D01*
X137070000Y-109084919D01*
X136864166Y-109105191D01*
X136666234Y-109165234D01*
X136524529Y-109240975D01*
X136524529Y-109240976D01*
X137048553Y-109765000D01*
X137020630Y-109765000D01*
X136925255Y-109790556D01*
X136839745Y-109839925D01*
X136769925Y-109909745D01*
X136720556Y-109995255D01*
X136695000Y-110090630D01*
X136695000Y-110118553D01*
X136170976Y-109594529D01*
X136170975Y-109594529D01*
X136095234Y-109736234D01*
X136035191Y-109934166D01*
X136014919Y-110140000D01*
X126585500Y-110140000D01*
X126585500Y-107129999D01*
X142534341Y-107129999D01*
X142534341Y-107130000D01*
X142554936Y-107365403D01*
X142554938Y-107365413D01*
X142616094Y-107593655D01*
X142616096Y-107593659D01*
X142616097Y-107593663D01*
X142694997Y-107762864D01*
X142715965Y-107807830D01*
X142715967Y-107807834D01*
X142820647Y-107957331D01*
X142851501Y-108001396D01*
X142851506Y-108001402D01*
X142973430Y-108123326D01*
X143006915Y-108184649D01*
X143001931Y-108254341D01*
X142960059Y-108310274D01*
X142929083Y-108327189D01*
X142797669Y-108376203D01*
X142797664Y-108376206D01*
X142682455Y-108462452D01*
X142682452Y-108462455D01*
X142596206Y-108577664D01*
X142596202Y-108577671D01*
X142545908Y-108712517D01*
X142539501Y-108772116D01*
X142539501Y-108772123D01*
X142539500Y-108772135D01*
X142539500Y-110567870D01*
X142539501Y-110567876D01*
X142545908Y-110627483D01*
X142596202Y-110762328D01*
X142596206Y-110762335D01*
X142682452Y-110877544D01*
X142682455Y-110877547D01*
X142797664Y-110963793D01*
X142797671Y-110963797D01*
X142842618Y-110980561D01*
X142932517Y-111014091D01*
X142992127Y-111020500D01*
X143165500Y-111020499D01*
X143232539Y-111040183D01*
X143278294Y-111092987D01*
X143289500Y-111144499D01*
X143289500Y-112954574D01*
X143269815Y-113021613D01*
X143230598Y-113060112D01*
X143186957Y-113087030D01*
X143067029Y-113206959D01*
X142978001Y-113351294D01*
X142977996Y-113351305D01*
X142924651Y-113512290D01*
X142914500Y-113611647D01*
X142914500Y-114158337D01*
X142914501Y-114158355D01*
X142924650Y-114257707D01*
X142924651Y-114257710D01*
X142977996Y-114418694D01*
X142978001Y-114418705D01*
X143067029Y-114563040D01*
X143067032Y-114563044D01*
X143076660Y-114572672D01*
X143110145Y-114633995D01*
X143105161Y-114703687D01*
X143076663Y-114748031D01*
X143067428Y-114757265D01*
X143067424Y-114757271D01*
X142978457Y-114901507D01*
X142978452Y-114901518D01*
X142925144Y-115062393D01*
X142915000Y-115161677D01*
X142915000Y-115185000D01*
X144864999Y-115185000D01*
X144864999Y-115161692D01*
X144864998Y-115161677D01*
X144854855Y-115062392D01*
X144801547Y-114901518D01*
X144801542Y-114901507D01*
X144712575Y-114757271D01*
X144712572Y-114757267D01*
X144703339Y-114748034D01*
X144669854Y-114686711D01*
X144674838Y-114617019D01*
X144703343Y-114572668D01*
X144712968Y-114563044D01*
X144802003Y-114418697D01*
X144855349Y-114257708D01*
X144865500Y-114158345D01*
X144865499Y-113611656D01*
X144858399Y-113542155D01*
X144855349Y-113512292D01*
X144855348Y-113512289D01*
X144812853Y-113384047D01*
X144802003Y-113351303D01*
X144801999Y-113351297D01*
X144801998Y-113351294D01*
X144712970Y-113206959D01*
X144712969Y-113206958D01*
X144712968Y-113206956D01*
X144593044Y-113087032D01*
X144593043Y-113087031D01*
X144593042Y-113087030D01*
X144549402Y-113060112D01*
X144502678Y-113008163D01*
X144490500Y-112954574D01*
X144490500Y-111144499D01*
X144510185Y-111077460D01*
X144562989Y-111031705D01*
X144614500Y-111020499D01*
X144787871Y-111020499D01*
X144787872Y-111020499D01*
X144847483Y-111014091D01*
X144982331Y-110963796D01*
X145097546Y-110877546D01*
X145183796Y-110762331D01*
X145234091Y-110627483D01*
X145240500Y-110567873D01*
X145240499Y-108772128D01*
X145234091Y-108712517D01*
X145183796Y-108577669D01*
X145183795Y-108577668D01*
X145183793Y-108577664D01*
X145097547Y-108462455D01*
X145097544Y-108462452D01*
X144982335Y-108376206D01*
X144982328Y-108376202D01*
X144850917Y-108327189D01*
X144794983Y-108285318D01*
X144770566Y-108219853D01*
X144785418Y-108151580D01*
X144806563Y-108123332D01*
X144928495Y-108001401D01*
X144966885Y-107946573D01*
X144976127Y-107933376D01*
X145030704Y-107889751D01*
X145077701Y-107880500D01*
X148852299Y-107880500D01*
X148919338Y-107900185D01*
X148953873Y-107933376D01*
X149001505Y-108001401D01*
X149123430Y-108123326D01*
X149156915Y-108184649D01*
X149151931Y-108254341D01*
X149110059Y-108310274D01*
X149079083Y-108327189D01*
X148947669Y-108376203D01*
X148947664Y-108376206D01*
X148832455Y-108462452D01*
X148832452Y-108462455D01*
X148746206Y-108577664D01*
X148746202Y-108577671D01*
X148695908Y-108712517D01*
X148689501Y-108772116D01*
X148689501Y-108772123D01*
X148689500Y-108772135D01*
X148689500Y-110567870D01*
X148689501Y-110567876D01*
X148695908Y-110627483D01*
X148746202Y-110762328D01*
X148746206Y-110762335D01*
X148832452Y-110877544D01*
X148832455Y-110877547D01*
X148947664Y-110963793D01*
X148947671Y-110963797D01*
X148992618Y-110980561D01*
X149082517Y-111014091D01*
X149142127Y-111020500D01*
X149315500Y-111020499D01*
X149382539Y-111040183D01*
X149428294Y-111092987D01*
X149439500Y-111144499D01*
X149439500Y-112954574D01*
X149419815Y-113021613D01*
X149380598Y-113060112D01*
X149336957Y-113087030D01*
X149217029Y-113206959D01*
X149128001Y-113351294D01*
X149127996Y-113351305D01*
X149074651Y-113512290D01*
X149064500Y-113611647D01*
X149064500Y-114158337D01*
X149064501Y-114158355D01*
X149074650Y-114257707D01*
X149074651Y-114257710D01*
X149127996Y-114418694D01*
X149128001Y-114418705D01*
X149217029Y-114563040D01*
X149217032Y-114563044D01*
X149226660Y-114572672D01*
X149260145Y-114633995D01*
X149255161Y-114703687D01*
X149226663Y-114748031D01*
X149217428Y-114757265D01*
X149217424Y-114757271D01*
X149128457Y-114901507D01*
X149128452Y-114901518D01*
X149075144Y-115062393D01*
X149065000Y-115161677D01*
X149065000Y-115185000D01*
X151014999Y-115185000D01*
X151014999Y-115161692D01*
X151014998Y-115161677D01*
X151004855Y-115062392D01*
X150951547Y-114901518D01*
X150951542Y-114901507D01*
X150862575Y-114757271D01*
X150862572Y-114757267D01*
X150853339Y-114748034D01*
X150819854Y-114686711D01*
X150824838Y-114617019D01*
X150853343Y-114572668D01*
X150862968Y-114563044D01*
X150952003Y-114418697D01*
X151005349Y-114257708D01*
X151015500Y-114158345D01*
X151015499Y-113611656D01*
X151008399Y-113542155D01*
X151005349Y-113512292D01*
X151005348Y-113512289D01*
X150962853Y-113384047D01*
X150952003Y-113351303D01*
X150951999Y-113351297D01*
X150951998Y-113351294D01*
X150862970Y-113206959D01*
X150862969Y-113206958D01*
X150862968Y-113206956D01*
X150743044Y-113087032D01*
X150743043Y-113087031D01*
X150743042Y-113087030D01*
X150699402Y-113060112D01*
X150652678Y-113008163D01*
X150640500Y-112954574D01*
X150640500Y-111144499D01*
X150660185Y-111077460D01*
X150712989Y-111031705D01*
X150764500Y-111020499D01*
X150937871Y-111020499D01*
X150937872Y-111020499D01*
X150997483Y-111014091D01*
X151132331Y-110963796D01*
X151247546Y-110877546D01*
X151333796Y-110762331D01*
X151384091Y-110627483D01*
X151390500Y-110567873D01*
X151390499Y-108772128D01*
X151384091Y-108712517D01*
X151333796Y-108577669D01*
X151333795Y-108577668D01*
X151333793Y-108577664D01*
X151247547Y-108462455D01*
X151247544Y-108462452D01*
X151132335Y-108376206D01*
X151132328Y-108376202D01*
X151000917Y-108327189D01*
X150944983Y-108285318D01*
X150920566Y-108219853D01*
X150935418Y-108151580D01*
X150956563Y-108123332D01*
X151078495Y-108001401D01*
X151116885Y-107946573D01*
X151126127Y-107933376D01*
X151180704Y-107889751D01*
X151227701Y-107880500D01*
X154302299Y-107880500D01*
X154369338Y-107900185D01*
X154403873Y-107933376D01*
X154451505Y-108001401D01*
X154573430Y-108123326D01*
X154606915Y-108184649D01*
X154601931Y-108254341D01*
X154560059Y-108310274D01*
X154529083Y-108327189D01*
X154397669Y-108376203D01*
X154397664Y-108376206D01*
X154282455Y-108462452D01*
X154282452Y-108462455D01*
X154196206Y-108577664D01*
X154196202Y-108577671D01*
X154145908Y-108712517D01*
X154139501Y-108772116D01*
X154139501Y-108772123D01*
X154139500Y-108772135D01*
X154139500Y-110567870D01*
X154139501Y-110567876D01*
X154145908Y-110627483D01*
X154196202Y-110762328D01*
X154196206Y-110762335D01*
X154282452Y-110877544D01*
X154282455Y-110877547D01*
X154397664Y-110963793D01*
X154397671Y-110963797D01*
X154442618Y-110980561D01*
X154532517Y-111014091D01*
X154592127Y-111020500D01*
X154765500Y-111020499D01*
X154832539Y-111040183D01*
X154878294Y-111092987D01*
X154889500Y-111144499D01*
X154889500Y-112954574D01*
X154869815Y-113021613D01*
X154830598Y-113060112D01*
X154786957Y-113087030D01*
X154667029Y-113206959D01*
X154578001Y-113351294D01*
X154577996Y-113351305D01*
X154524651Y-113512290D01*
X154514500Y-113611647D01*
X154514500Y-114158337D01*
X154514501Y-114158355D01*
X154524650Y-114257707D01*
X154524651Y-114257710D01*
X154577996Y-114418694D01*
X154578001Y-114418705D01*
X154667029Y-114563040D01*
X154667032Y-114563044D01*
X154676660Y-114572672D01*
X154710145Y-114633995D01*
X154705161Y-114703687D01*
X154676663Y-114748031D01*
X154667428Y-114757265D01*
X154667424Y-114757271D01*
X154578457Y-114901507D01*
X154578452Y-114901518D01*
X154525144Y-115062393D01*
X154515000Y-115161677D01*
X154515000Y-115185000D01*
X156464999Y-115185000D01*
X156464999Y-115161692D01*
X156464998Y-115161677D01*
X156454855Y-115062392D01*
X156413584Y-114937844D01*
X162760000Y-114937844D01*
X162766401Y-114997372D01*
X162766403Y-114997383D01*
X162803434Y-115096668D01*
X162808418Y-115166360D01*
X162803434Y-115183332D01*
X162766403Y-115282616D01*
X162766401Y-115282627D01*
X162760000Y-115342155D01*
X162760000Y-115390000D01*
X164660000Y-115390000D01*
X165160000Y-115390000D01*
X167060000Y-115390000D01*
X167060000Y-115342172D01*
X167059999Y-115342155D01*
X167053598Y-115282627D01*
X167053597Y-115282623D01*
X167016564Y-115183334D01*
X167011580Y-115113642D01*
X167016564Y-115096666D01*
X167053597Y-114997376D01*
X167053598Y-114997372D01*
X167059999Y-114937844D01*
X167060000Y-114937827D01*
X167060000Y-114490000D01*
X165160000Y-114490000D01*
X165160000Y-115390000D01*
X164660000Y-115390000D01*
X164660000Y-114490000D01*
X162760000Y-114490000D01*
X162760000Y-114937844D01*
X156413584Y-114937844D01*
X156401547Y-114901518D01*
X156401542Y-114901507D01*
X156312575Y-114757271D01*
X156312572Y-114757267D01*
X156303339Y-114748034D01*
X156269854Y-114686711D01*
X156274838Y-114617019D01*
X156303343Y-114572668D01*
X156312968Y-114563044D01*
X156402003Y-114418697D01*
X156455349Y-114257708D01*
X156465500Y-114158345D01*
X156465499Y-113611656D01*
X156458399Y-113542155D01*
X156455349Y-113512292D01*
X156455348Y-113512289D01*
X156412853Y-113384047D01*
X156402003Y-113351303D01*
X156401999Y-113351297D01*
X156401998Y-113351294D01*
X156312970Y-113206959D01*
X156312969Y-113206958D01*
X156312968Y-113206956D01*
X156193044Y-113087032D01*
X156193043Y-113087031D01*
X156193042Y-113087030D01*
X156149402Y-113060112D01*
X156102678Y-113008163D01*
X156090500Y-112954574D01*
X156090500Y-111144499D01*
X156110185Y-111077460D01*
X156162989Y-111031705D01*
X156214500Y-111020499D01*
X156387871Y-111020499D01*
X156387872Y-111020499D01*
X156447483Y-111014091D01*
X156582331Y-110963796D01*
X156697546Y-110877546D01*
X156783796Y-110762331D01*
X156834091Y-110627483D01*
X156840500Y-110567873D01*
X156840500Y-109967127D01*
X162759500Y-109967127D01*
X162759500Y-109967134D01*
X162759500Y-109967135D01*
X162759500Y-110562870D01*
X162759501Y-110562876D01*
X162765908Y-110622483D01*
X162816202Y-110757328D01*
X162816206Y-110757335D01*
X162902452Y-110872544D01*
X162902455Y-110872547D01*
X163017664Y-110958793D01*
X163017671Y-110958797D01*
X163152517Y-111009091D01*
X163152516Y-111009091D01*
X163159444Y-111009835D01*
X163212127Y-111015500D01*
X163985500Y-111015499D01*
X164052539Y-111035183D01*
X164098294Y-111087987D01*
X164109500Y-111139499D01*
X164109500Y-111965500D01*
X164089815Y-112032539D01*
X164037011Y-112078294D01*
X163985500Y-112089500D01*
X163212129Y-112089500D01*
X163212123Y-112089501D01*
X163152516Y-112095908D01*
X163017671Y-112146202D01*
X163017664Y-112146206D01*
X162902455Y-112232452D01*
X162902452Y-112232455D01*
X162816206Y-112347664D01*
X162816202Y-112347671D01*
X162765910Y-112482513D01*
X162765909Y-112482517D01*
X162759500Y-112542127D01*
X162759500Y-112542134D01*
X162759500Y-112542135D01*
X162759500Y-113137870D01*
X162759501Y-113137876D01*
X162765908Y-113197483D01*
X162803168Y-113297381D01*
X162808152Y-113367073D01*
X162803168Y-113384046D01*
X162766403Y-113482617D01*
X162766401Y-113482627D01*
X162760000Y-113542155D01*
X162760000Y-113990000D01*
X167060000Y-113990000D01*
X167060000Y-113542172D01*
X167059999Y-113542155D01*
X167053598Y-113482627D01*
X167053596Y-113482620D01*
X167016831Y-113384047D01*
X167011847Y-113314356D01*
X167016831Y-113297381D01*
X167054091Y-113197483D01*
X167060500Y-113137873D01*
X167060499Y-112542128D01*
X167054091Y-112482517D01*
X167003796Y-112347669D01*
X167003795Y-112347668D01*
X167003793Y-112347664D01*
X166917547Y-112232455D01*
X166917544Y-112232452D01*
X166802335Y-112146206D01*
X166802328Y-112146202D01*
X166667482Y-112095908D01*
X166667483Y-112095908D01*
X166607883Y-112089501D01*
X166607881Y-112089500D01*
X166607873Y-112089500D01*
X166607865Y-112089500D01*
X165834500Y-112089500D01*
X165767461Y-112069815D01*
X165721706Y-112017011D01*
X165710500Y-111965500D01*
X165710500Y-111139499D01*
X165730185Y-111072460D01*
X165782989Y-111026705D01*
X165834500Y-111015499D01*
X166607871Y-111015499D01*
X166607872Y-111015499D01*
X166667483Y-111009091D01*
X166802331Y-110958796D01*
X166917546Y-110872546D01*
X167003796Y-110757331D01*
X167054091Y-110622483D01*
X167060500Y-110562873D01*
X167060499Y-109967128D01*
X167054091Y-109907517D01*
X167016830Y-109807617D01*
X167011847Y-109737927D01*
X167016831Y-109720951D01*
X167053597Y-109622376D01*
X167053598Y-109622372D01*
X167059999Y-109562844D01*
X167060000Y-109562827D01*
X167060000Y-109115000D01*
X162760000Y-109115000D01*
X162760000Y-109562844D01*
X162766401Y-109622372D01*
X162766403Y-109622380D01*
X162803168Y-109720952D01*
X162808152Y-109790644D01*
X162803168Y-109807617D01*
X162765910Y-109907511D01*
X162765909Y-109907515D01*
X162765909Y-109907517D01*
X162759500Y-109967127D01*
X156840500Y-109967127D01*
X156840499Y-108772128D01*
X156834091Y-108712517D01*
X156783796Y-108577669D01*
X156783795Y-108577668D01*
X156783793Y-108577664D01*
X156697547Y-108462455D01*
X156697544Y-108462452D01*
X156582335Y-108376206D01*
X156582328Y-108376202D01*
X156450917Y-108327189D01*
X156394983Y-108285318D01*
X156370566Y-108219853D01*
X156385418Y-108151580D01*
X156406563Y-108123332D01*
X156528495Y-108001401D01*
X156664035Y-107807830D01*
X156763903Y-107593663D01*
X156825063Y-107365408D01*
X156845659Y-107130000D01*
X156825063Y-106894592D01*
X156776808Y-106714500D01*
X156763905Y-106666344D01*
X156763904Y-106666343D01*
X156763903Y-106666337D01*
X156664035Y-106452171D01*
X156613151Y-106379500D01*
X156528494Y-106258597D01*
X156361404Y-106091507D01*
X156293375Y-106043872D01*
X156249751Y-105989294D01*
X156240500Y-105942298D01*
X156240500Y-104142127D01*
X162759500Y-104142127D01*
X162759500Y-104142134D01*
X162759500Y-104142135D01*
X162759500Y-104737870D01*
X162759501Y-104737876D01*
X162765908Y-104797483D01*
X162816202Y-104932328D01*
X162816206Y-104932335D01*
X162902452Y-105047544D01*
X162902455Y-105047547D01*
X163017664Y-105133793D01*
X163017671Y-105133797D01*
X163152517Y-105184091D01*
X163152516Y-105184091D01*
X163159444Y-105184835D01*
X163212127Y-105190500D01*
X163985500Y-105190499D01*
X164052539Y-105210183D01*
X164098294Y-105262987D01*
X164109500Y-105314499D01*
X164109500Y-106590500D01*
X164089815Y-106657539D01*
X164037011Y-106703294D01*
X163985500Y-106714500D01*
X163212129Y-106714500D01*
X163212123Y-106714501D01*
X163152516Y-106720908D01*
X163017671Y-106771202D01*
X163017664Y-106771206D01*
X162902455Y-106857452D01*
X162902452Y-106857455D01*
X162816206Y-106972664D01*
X162816202Y-106972671D01*
X162765910Y-107107513D01*
X162765909Y-107107517D01*
X162759500Y-107167127D01*
X162759500Y-107167134D01*
X162759500Y-107167135D01*
X162759500Y-107762870D01*
X162759501Y-107762876D01*
X162765908Y-107822483D01*
X162803168Y-107922381D01*
X162808152Y-107992073D01*
X162803168Y-108009046D01*
X162766403Y-108107617D01*
X162766401Y-108107627D01*
X162760000Y-108167155D01*
X162760000Y-108615000D01*
X167060000Y-108615000D01*
X167060000Y-108167172D01*
X167059999Y-108167155D01*
X167053598Y-108107627D01*
X167053596Y-108107620D01*
X167016831Y-108009047D01*
X167011847Y-107939356D01*
X167016831Y-107922381D01*
X167054091Y-107822483D01*
X167060500Y-107762873D01*
X167060499Y-107167128D01*
X167054091Y-107107517D01*
X167003796Y-106972669D01*
X167003795Y-106972668D01*
X167003793Y-106972664D01*
X166917547Y-106857455D01*
X166917544Y-106857452D01*
X166802335Y-106771206D01*
X166802328Y-106771202D01*
X166667482Y-106720908D01*
X166667483Y-106720908D01*
X166607883Y-106714501D01*
X166607881Y-106714500D01*
X166607873Y-106714500D01*
X166607865Y-106714500D01*
X165834500Y-106714500D01*
X165767461Y-106694815D01*
X165721706Y-106642011D01*
X165710500Y-106590500D01*
X165710500Y-105314499D01*
X165730185Y-105247460D01*
X165782989Y-105201705D01*
X165834500Y-105190499D01*
X166607871Y-105190499D01*
X166607872Y-105190499D01*
X166667483Y-105184091D01*
X166802331Y-105133796D01*
X166917546Y-105047546D01*
X167003796Y-104932331D01*
X167054091Y-104797483D01*
X167060500Y-104737873D01*
X167060499Y-104142128D01*
X167054091Y-104082517D01*
X167016830Y-103982617D01*
X167011847Y-103912927D01*
X167016831Y-103895951D01*
X167053597Y-103797376D01*
X167053598Y-103797372D01*
X167059999Y-103737844D01*
X167060000Y-103737827D01*
X167060000Y-103290000D01*
X162760000Y-103290000D01*
X162760000Y-103737844D01*
X162766401Y-103797372D01*
X162766403Y-103797380D01*
X162803168Y-103895952D01*
X162808152Y-103965644D01*
X162803168Y-103982617D01*
X162765910Y-104082511D01*
X162765909Y-104082515D01*
X162765909Y-104082517D01*
X162759500Y-104142127D01*
X156240500Y-104142127D01*
X156240500Y-97524500D01*
X156260185Y-97457461D01*
X156312989Y-97411706D01*
X156364500Y-97400500D01*
X163761042Y-97400500D01*
X163828081Y-97420185D01*
X163866580Y-97459402D01*
X163872288Y-97468656D01*
X163996344Y-97592712D01*
X164050596Y-97626174D01*
X164097320Y-97678120D01*
X164109500Y-97731713D01*
X164109500Y-100765500D01*
X164089815Y-100832539D01*
X164037011Y-100878294D01*
X163985500Y-100889500D01*
X163212129Y-100889500D01*
X163212123Y-100889501D01*
X163152516Y-100895908D01*
X163017671Y-100946202D01*
X163017664Y-100946206D01*
X162902455Y-101032452D01*
X162902452Y-101032455D01*
X162816206Y-101147664D01*
X162816202Y-101147671D01*
X162765910Y-101282513D01*
X162765909Y-101282517D01*
X162759500Y-101342127D01*
X162759500Y-101342134D01*
X162759500Y-101342135D01*
X162759500Y-101937870D01*
X162759501Y-101937876D01*
X162765908Y-101997483D01*
X162803168Y-102097381D01*
X162808152Y-102167073D01*
X162803168Y-102184046D01*
X162766403Y-102282617D01*
X162766401Y-102282627D01*
X162760000Y-102342155D01*
X162760000Y-102790000D01*
X167060000Y-102790000D01*
X167060000Y-102342172D01*
X167059999Y-102342155D01*
X167053598Y-102282627D01*
X167053596Y-102282620D01*
X167016831Y-102184047D01*
X167011847Y-102114356D01*
X167016831Y-102097381D01*
X167054091Y-101997483D01*
X167060500Y-101937873D01*
X167060499Y-101342128D01*
X167054091Y-101282517D01*
X167043260Y-101253478D01*
X167003797Y-101147671D01*
X167003793Y-101147664D01*
X166917547Y-101032456D01*
X166917548Y-101032456D01*
X166917546Y-101032454D01*
X166852507Y-100983765D01*
X166810637Y-100927833D01*
X166805653Y-100858141D01*
X166839138Y-100796818D01*
X166900462Y-100763334D01*
X166926819Y-100760500D01*
X167947060Y-100760500D01*
X168014099Y-100780185D01*
X168034741Y-100796819D01*
X168491400Y-101253478D01*
X168524885Y-101314801D01*
X168527122Y-101329003D01*
X168534699Y-101405932D01*
X168564734Y-101504944D01*
X168594768Y-101603954D01*
X168692315Y-101786450D01*
X168692317Y-101786452D01*
X168823589Y-101946410D01*
X168885823Y-101997483D01*
X168983550Y-102077685D01*
X169166046Y-102175232D01*
X169364066Y-102235300D01*
X169364065Y-102235300D01*
X169382341Y-102237100D01*
X169570000Y-102255583D01*
X169775934Y-102235300D01*
X169973954Y-102175232D01*
X170156450Y-102077685D01*
X170316410Y-101946410D01*
X170447685Y-101786450D01*
X170545232Y-101603954D01*
X170605300Y-101405934D01*
X170625583Y-101200000D01*
X170605300Y-100994066D01*
X170545232Y-100796046D01*
X170447685Y-100613550D01*
X170363863Y-100511412D01*
X170316410Y-100453589D01*
X170198677Y-100356969D01*
X170156450Y-100322315D01*
X169973954Y-100224768D01*
X169838586Y-100183705D01*
X169775932Y-100164699D01*
X169699003Y-100157122D01*
X169634216Y-100130960D01*
X169623478Y-100121400D01*
X168840292Y-99338213D01*
X168840288Y-99338210D01*
X168709185Y-99250609D01*
X168709172Y-99250602D01*
X168563501Y-99190264D01*
X168563489Y-99190261D01*
X168408845Y-99159500D01*
X168408842Y-99159500D01*
X165834500Y-99159500D01*
X165767461Y-99139815D01*
X165721706Y-99087011D01*
X165710500Y-99035500D01*
X165710500Y-97737881D01*
X165730185Y-97670842D01*
X165769403Y-97632342D01*
X165833656Y-97592712D01*
X165957712Y-97468656D01*
X165963420Y-97459402D01*
X166015368Y-97412678D01*
X166068958Y-97400500D01*
X168486042Y-97400500D01*
X168553081Y-97420185D01*
X168591580Y-97459402D01*
X168597288Y-97468656D01*
X168721344Y-97592712D01*
X168870666Y-97684814D01*
X169037203Y-97739999D01*
X169139991Y-97750500D01*
X170140008Y-97750499D01*
X170140016Y-97750498D01*
X170140019Y-97750498D01*
X170196302Y-97744748D01*
X170242797Y-97739999D01*
X170409334Y-97684814D01*
X170558656Y-97592712D01*
X170682712Y-97468656D01*
X170774814Y-97319334D01*
X170829999Y-97152797D01*
X170840500Y-97050009D01*
X170840499Y-96249992D01*
X170839735Y-96242517D01*
X170829999Y-96147203D01*
X170829998Y-96147200D01*
X170774814Y-95980666D01*
X170682712Y-95831344D01*
X170589049Y-95737681D01*
X170555564Y-95676358D01*
X170560548Y-95606666D01*
X170589049Y-95562319D01*
X170600510Y-95550858D01*
X170682712Y-95468656D01*
X170774814Y-95319334D01*
X170829999Y-95152797D01*
X170840500Y-95050009D01*
X170840499Y-94249992D01*
X170839735Y-94242517D01*
X170829999Y-94147203D01*
X170829998Y-94147200D01*
X170821561Y-94121740D01*
X170774814Y-93980666D01*
X170682712Y-93831344D01*
X170558656Y-93707288D01*
X170449402Y-93639900D01*
X170402679Y-93587953D01*
X170390500Y-93534362D01*
X170390500Y-90072230D01*
X170410185Y-90005191D01*
X170426819Y-89984549D01*
X171912947Y-88498421D01*
X171912952Y-88498416D01*
X171933352Y-88467883D01*
X171974972Y-88405596D01*
X171974974Y-88405591D01*
X171974980Y-88405583D01*
X171995084Y-88375495D01*
X172051658Y-88238913D01*
X172079191Y-88100500D01*
X172080500Y-88093920D01*
X172080500Y-86424500D01*
X172100185Y-86357461D01*
X172152989Y-86311706D01*
X172204500Y-86300500D01*
X174354206Y-86300500D01*
X174421245Y-86320185D01*
X174432871Y-86328647D01*
X174553546Y-86427682D01*
X174553550Y-86427685D01*
X174736046Y-86525232D01*
X174934066Y-86585300D01*
X174934065Y-86585300D01*
X174948148Y-86586687D01*
X175140000Y-86605583D01*
X175345934Y-86585300D01*
X175543954Y-86525232D01*
X175726450Y-86427685D01*
X175886410Y-86296410D01*
X176017685Y-86136450D01*
X176115232Y-85953954D01*
X176175300Y-85755934D01*
X176195583Y-85550000D01*
X176175300Y-85344066D01*
X176115232Y-85146046D01*
X176017685Y-84963550D01*
X175965702Y-84900209D01*
X175886410Y-84803589D01*
X175726452Y-84672317D01*
X175726453Y-84672317D01*
X175726450Y-84672315D01*
X175543954Y-84574768D01*
X175345934Y-84514700D01*
X175345932Y-84514699D01*
X175345934Y-84514699D01*
X175140000Y-84494417D01*
X174934067Y-84514699D01*
X174736043Y-84574769D01*
X174553546Y-84672317D01*
X174432871Y-84771353D01*
X174368561Y-84798666D01*
X174354206Y-84799500D01*
X172204500Y-84799500D01*
X172137461Y-84779815D01*
X172091706Y-84727011D01*
X172080500Y-84675500D01*
X172080500Y-81916079D01*
X172051659Y-81771092D01*
X172051658Y-81771091D01*
X172051658Y-81771087D01*
X171995084Y-81634505D01*
X171941735Y-81554662D01*
X171922619Y-81526052D01*
X171912954Y-81511586D01*
X171912952Y-81511584D01*
X170993421Y-80592052D01*
X170993414Y-80592046D01*
X170919729Y-80542812D01*
X170919729Y-80542813D01*
X170870491Y-80509913D01*
X170733917Y-80453343D01*
X170733907Y-80453340D01*
X170588920Y-80424500D01*
X170588918Y-80424500D01*
X170439500Y-80424500D01*
X170372461Y-80404815D01*
X170326706Y-80352011D01*
X170315500Y-80300500D01*
X170315500Y-79785164D01*
X170315500Y-79785158D01*
X170305469Y-79672335D01*
X170252570Y-79487458D01*
X170252570Y-79487457D01*
X170163539Y-79317017D01*
X170042017Y-79167982D01*
X169892982Y-79046460D01*
X169722542Y-78957429D01*
X169578794Y-78916299D01*
X169537665Y-78904531D01*
X169537663Y-78904530D01*
X169537660Y-78904530D01*
X169468877Y-78898415D01*
X169424842Y-78894500D01*
X168425158Y-78894500D01*
X168392131Y-78897436D01*
X168312339Y-78904530D01*
X168312335Y-78904531D01*
X168127457Y-78957429D01*
X167957017Y-79046460D01*
X167807982Y-79167982D01*
X167686460Y-79317017D01*
X167597429Y-79487457D01*
X167544531Y-79672335D01*
X167544530Y-79672339D01*
X167537436Y-79752131D01*
X167534500Y-79785158D01*
X167534500Y-82564842D01*
X167538415Y-82608877D01*
X167544530Y-82677660D01*
X167544530Y-82677663D01*
X167544531Y-82677665D01*
X167554418Y-82712218D01*
X167597429Y-82862542D01*
X167686460Y-83032982D01*
X167807982Y-83182017D01*
X167957017Y-83303539D01*
X168127457Y-83392570D01*
X168168587Y-83404338D01*
X168312335Y-83445469D01*
X168425158Y-83455500D01*
X168425164Y-83455500D01*
X169424836Y-83455500D01*
X169424842Y-83455500D01*
X169537665Y-83445469D01*
X169722542Y-83392570D01*
X169804026Y-83350006D01*
X169892982Y-83303539D01*
X169892983Y-83303537D01*
X169892985Y-83303537D01*
X170042017Y-83182017D01*
X170163537Y-83032985D01*
X170252570Y-82862542D01*
X170305469Y-82677665D01*
X170315500Y-82564842D01*
X170315500Y-82336230D01*
X170335185Y-82269191D01*
X170387989Y-82223436D01*
X170457147Y-82213492D01*
X170520703Y-82242517D01*
X170527181Y-82248549D01*
X170543181Y-82264549D01*
X170576666Y-82325872D01*
X170579500Y-82352230D01*
X170579500Y-87657770D01*
X170559815Y-87724809D01*
X170543181Y-87745451D01*
X169057047Y-89231584D01*
X169057045Y-89231586D01*
X169021476Y-89284823D01*
X169021474Y-89284826D01*
X168974919Y-89354499D01*
X168974912Y-89354511D01*
X168918343Y-89491082D01*
X168918340Y-89491092D01*
X168889500Y-89636079D01*
X168889500Y-93534362D01*
X168869815Y-93601401D01*
X168830598Y-93639899D01*
X168787939Y-93666212D01*
X168721342Y-93707289D01*
X168597287Y-93831344D01*
X168591580Y-93840598D01*
X168539632Y-93887322D01*
X168486042Y-93899500D01*
X166068958Y-93899500D01*
X166001919Y-93879815D01*
X165963420Y-93840598D01*
X165957712Y-93831344D01*
X165833657Y-93707289D01*
X165833656Y-93707288D01*
X165684334Y-93615186D01*
X165517797Y-93560001D01*
X165517795Y-93560000D01*
X165415010Y-93549500D01*
X164414998Y-93549500D01*
X164414980Y-93549501D01*
X164312203Y-93560000D01*
X164312200Y-93560001D01*
X164145668Y-93615185D01*
X164145663Y-93615187D01*
X163996342Y-93707289D01*
X163872287Y-93831344D01*
X163866580Y-93840598D01*
X163814632Y-93887322D01*
X163761042Y-93899500D01*
X160374097Y-93899500D01*
X160307058Y-93879815D01*
X160261303Y-93827011D01*
X160251359Y-93757853D01*
X160280384Y-93694297D01*
X160286416Y-93687819D01*
X160439874Y-93534362D01*
X160762417Y-93211819D01*
X160823740Y-93178334D01*
X160850098Y-93175500D01*
X161859996Y-93175500D01*
X161927035Y-93195185D01*
X161965535Y-93234404D01*
X161977031Y-93253043D01*
X162096955Y-93372967D01*
X162096959Y-93372970D01*
X162241294Y-93461998D01*
X162241297Y-93461999D01*
X162241303Y-93462003D01*
X162402292Y-93515349D01*
X162501655Y-93525500D01*
X163098344Y-93525499D01*
X163098352Y-93525498D01*
X163098355Y-93525498D01*
X163152760Y-93519940D01*
X163197708Y-93515349D01*
X163358697Y-93462003D01*
X163503044Y-93372968D01*
X163622968Y-93253044D01*
X163712003Y-93108697D01*
X163765349Y-92947708D01*
X163775500Y-92848345D01*
X163775499Y-92301656D01*
X163765349Y-92202292D01*
X163712003Y-92041303D01*
X163711999Y-92041297D01*
X163711998Y-92041294D01*
X163622970Y-91896959D01*
X163622967Y-91896955D01*
X163613693Y-91887681D01*
X163580208Y-91826358D01*
X163585192Y-91756666D01*
X163613693Y-91712319D01*
X163616857Y-91709155D01*
X163622968Y-91703044D01*
X163712003Y-91558697D01*
X163765349Y-91397708D01*
X163775500Y-91298345D01*
X163775499Y-90751656D01*
X163765349Y-90652292D01*
X163712003Y-90491303D01*
X163711999Y-90491297D01*
X163711998Y-90491294D01*
X163622970Y-90346959D01*
X163622967Y-90346955D01*
X163503044Y-90227032D01*
X163503040Y-90227029D01*
X163358705Y-90138001D01*
X163358699Y-90137998D01*
X163358697Y-90137997D01*
X163306552Y-90120718D01*
X163197709Y-90084651D01*
X163098346Y-90074500D01*
X162501662Y-90074500D01*
X162501644Y-90074501D01*
X162402292Y-90084650D01*
X162402289Y-90084651D01*
X162241305Y-90137996D01*
X162241294Y-90138001D01*
X162096959Y-90227029D01*
X162096955Y-90227032D01*
X162085807Y-90238181D01*
X162024484Y-90271666D01*
X161998126Y-90274500D01*
X160476080Y-90274500D01*
X160331092Y-90303340D01*
X160331086Y-90303342D01*
X160194508Y-90359914D01*
X160194496Y-90359921D01*
X160145269Y-90392813D01*
X160071588Y-90442044D01*
X160071580Y-90442050D01*
X159475451Y-91038181D01*
X159414128Y-91071666D01*
X159387770Y-91074500D01*
X157964492Y-91074500D01*
X157929901Y-91069577D01*
X157784156Y-91027235D01*
X157784153Y-91027234D01*
X157784151Y-91027234D01*
X157753395Y-91024814D01*
X157749405Y-91024500D01*
X157749404Y-91024500D01*
X157400606Y-91024500D01*
X157400584Y-91024501D01*
X157365847Y-91027234D01*
X157365844Y-91027235D01*
X157220098Y-91069577D01*
X157185508Y-91074500D01*
X155701079Y-91074500D01*
X155573691Y-91099839D01*
X155504100Y-91093612D01*
X155448922Y-91050749D01*
X155425678Y-90984859D01*
X155425500Y-90978222D01*
X155425500Y-89974363D01*
X156850001Y-89974363D01*
X156852733Y-90009078D01*
X156895906Y-90157681D01*
X156895907Y-90157684D01*
X156974682Y-90290885D01*
X156974688Y-90290894D01*
X157084105Y-90400311D01*
X157084114Y-90400317D01*
X157217315Y-90479092D01*
X157217318Y-90479093D01*
X157349998Y-90517641D01*
X157350000Y-90517640D01*
X157800000Y-90517640D01*
X157800001Y-90517641D01*
X157932681Y-90479093D01*
X157932684Y-90479092D01*
X158065885Y-90400317D01*
X158065894Y-90400311D01*
X158175311Y-90290894D01*
X158175317Y-90290885D01*
X158254092Y-90157684D01*
X158254093Y-90157681D01*
X158297265Y-90009084D01*
X158297267Y-90009073D01*
X158299999Y-89974359D01*
X158300000Y-89974346D01*
X158300000Y-89950000D01*
X157800000Y-89950000D01*
X157800000Y-90517640D01*
X157350000Y-90517640D01*
X157350000Y-89950000D01*
X156850001Y-89950000D01*
X156850001Y-89974363D01*
X155425500Y-89974363D01*
X155425500Y-89475640D01*
X156850000Y-89475640D01*
X156850000Y-89500000D01*
X157350000Y-89500000D01*
X157800000Y-89500000D01*
X158299999Y-89500000D01*
X158299999Y-89475658D01*
X158299998Y-89475636D01*
X158297266Y-89440921D01*
X158254093Y-89292318D01*
X158254092Y-89292315D01*
X158175317Y-89159114D01*
X158175311Y-89159105D01*
X158065894Y-89049688D01*
X158065885Y-89049682D01*
X157932684Y-88970907D01*
X157932683Y-88970906D01*
X157800000Y-88932357D01*
X157800000Y-89500000D01*
X157350000Y-89500000D01*
X157350000Y-88932357D01*
X157217316Y-88970906D01*
X157217315Y-88970907D01*
X157084114Y-89049682D01*
X157084105Y-89049688D01*
X156974688Y-89159105D01*
X156974682Y-89159114D01*
X156895907Y-89292315D01*
X156895906Y-89292318D01*
X156852734Y-89440915D01*
X156852732Y-89440926D01*
X156850000Y-89475640D01*
X155425500Y-89475640D01*
X155425500Y-88951081D01*
X155419763Y-88922242D01*
X155419763Y-88922240D01*
X155402883Y-88837378D01*
X155400500Y-88813187D01*
X155400500Y-84762230D01*
X155420185Y-84695191D01*
X155436819Y-84674549D01*
X157922819Y-82188549D01*
X157984142Y-82155064D01*
X158053834Y-82160048D01*
X158109767Y-82201920D01*
X158134184Y-82267384D01*
X158134500Y-82276230D01*
X158134500Y-82564842D01*
X158138415Y-82608877D01*
X158144530Y-82677660D01*
X158144530Y-82677663D01*
X158144531Y-82677665D01*
X158154418Y-82712218D01*
X158197429Y-82862542D01*
X158286460Y-83032982D01*
X158407982Y-83182017D01*
X158557017Y-83303539D01*
X158727457Y-83392570D01*
X158768587Y-83404338D01*
X158912335Y-83445469D01*
X159025158Y-83455500D01*
X159025164Y-83455500D01*
X160024836Y-83455500D01*
X160024842Y-83455500D01*
X160137665Y-83445469D01*
X160322542Y-83392570D01*
X160404026Y-83350006D01*
X160492982Y-83303539D01*
X160492983Y-83303537D01*
X160492985Y-83303537D01*
X160642017Y-83182017D01*
X160763537Y-83032985D01*
X160852570Y-82862542D01*
X160905469Y-82677665D01*
X160915500Y-82564842D01*
X160915500Y-79785158D01*
X160905469Y-79672335D01*
X160852570Y-79487458D01*
X160852570Y-79487457D01*
X160763539Y-79317017D01*
X160642017Y-79167982D01*
X160492982Y-79046460D01*
X160322542Y-78957429D01*
X160178794Y-78916299D01*
X160137665Y-78904531D01*
X160137663Y-78904530D01*
X160137660Y-78904530D01*
X160068877Y-78898415D01*
X160024842Y-78894500D01*
X159025158Y-78894500D01*
X158992131Y-78897436D01*
X158912339Y-78904530D01*
X158912335Y-78904531D01*
X158727457Y-78957429D01*
X158557017Y-79046460D01*
X158407982Y-79167982D01*
X158286460Y-79317017D01*
X158197429Y-79487457D01*
X158144531Y-79672335D01*
X158144530Y-79672339D01*
X158134500Y-79785161D01*
X158134500Y-80300500D01*
X158114815Y-80367539D01*
X158062011Y-80413294D01*
X158010500Y-80424500D01*
X157801076Y-80424500D01*
X157772242Y-80430234D01*
X157772243Y-80430235D01*
X157656093Y-80453339D01*
X157656083Y-80453342D01*
X157576081Y-80486479D01*
X157576082Y-80486480D01*
X157519502Y-80509917D01*
X157470269Y-80542813D01*
X157396588Y-80592044D01*
X157396580Y-80592050D01*
X154067047Y-83921584D01*
X154055054Y-83939534D01*
X154043112Y-83957408D01*
X154013914Y-84001105D01*
X153984914Y-84044507D01*
X153928343Y-84181082D01*
X153928340Y-84181092D01*
X153899500Y-84326079D01*
X153899500Y-86888769D01*
X153879815Y-86955808D01*
X153827011Y-87001563D01*
X153757853Y-87011507D01*
X153694297Y-86982482D01*
X153687819Y-86976450D01*
X153478421Y-86767052D01*
X153478414Y-86767046D01*
X153404729Y-86717812D01*
X153404729Y-86717813D01*
X153355491Y-86684913D01*
X153218917Y-86628343D01*
X153218907Y-86628340D01*
X153073920Y-86599500D01*
X153073918Y-86599500D01*
X149710794Y-86599500D01*
X149643755Y-86579815D01*
X149632129Y-86571353D01*
X149511453Y-86472317D01*
X149511451Y-86472316D01*
X149511450Y-86472315D01*
X149328954Y-86374768D01*
X149130934Y-86314700D01*
X149130932Y-86314699D01*
X149130934Y-86314699D01*
X148925000Y-86294417D01*
X148719067Y-86314699D01*
X148521043Y-86374769D01*
X148434966Y-86420779D01*
X148338550Y-86472315D01*
X148338548Y-86472316D01*
X148338547Y-86472317D01*
X148178589Y-86603589D01*
X148047317Y-86763547D01*
X148047315Y-86763550D01*
X148010912Y-86831655D01*
X147949769Y-86946043D01*
X147889699Y-87144067D01*
X147869417Y-87350000D01*
X147889699Y-87555932D01*
X147889700Y-87555934D01*
X147949768Y-87753954D01*
X148047315Y-87936450D01*
X148063585Y-87956275D01*
X148178589Y-88096410D01*
X148275209Y-88175702D01*
X148338550Y-88227685D01*
X148521046Y-88325232D01*
X148719066Y-88385300D01*
X148719065Y-88385300D01*
X148737529Y-88387118D01*
X148925000Y-88405583D01*
X149130934Y-88385300D01*
X149328954Y-88325232D01*
X149511450Y-88227685D01*
X149632129Y-88128647D01*
X149696439Y-88101334D01*
X149710794Y-88100500D01*
X152637770Y-88100500D01*
X152704809Y-88120185D01*
X152725451Y-88136819D01*
X153888181Y-89299549D01*
X153921666Y-89360872D01*
X153924500Y-89387230D01*
X153924500Y-91762919D01*
X153904815Y-91829958D01*
X153852011Y-91875713D01*
X153782853Y-91885657D01*
X153757168Y-91879101D01*
X153694985Y-91855909D01*
X153694983Y-91855908D01*
X153635383Y-91849501D01*
X153635381Y-91849500D01*
X153635373Y-91849500D01*
X153635364Y-91849500D01*
X152014629Y-91849500D01*
X152014623Y-91849501D01*
X151955016Y-91855908D01*
X151820171Y-91906202D01*
X151820164Y-91906206D01*
X151704955Y-91992452D01*
X151704952Y-91992455D01*
X151618706Y-92107664D01*
X151618702Y-92107671D01*
X151568408Y-92242517D01*
X151562050Y-92301662D01*
X151562001Y-92302123D01*
X151562000Y-92302135D01*
X151562000Y-92383044D01*
X151542315Y-92450083D01*
X151489511Y-92495838D01*
X151424745Y-92506334D01*
X151365828Y-92500000D01*
X150363000Y-92500000D01*
X150363000Y-96800000D01*
X151365828Y-96800000D01*
X151365841Y-96799999D01*
X151425243Y-96793612D01*
X151494003Y-96806016D01*
X151545141Y-96853626D01*
X151562500Y-96916901D01*
X151562500Y-96997844D01*
X151568901Y-97057372D01*
X151568903Y-97057379D01*
X151619145Y-97192086D01*
X151619149Y-97192093D01*
X151705309Y-97307187D01*
X151705312Y-97307190D01*
X151820406Y-97393350D01*
X151820413Y-97393354D01*
X151955120Y-97443596D01*
X151955127Y-97443598D01*
X152014655Y-97449999D01*
X152014672Y-97450000D01*
X152575000Y-97450000D01*
X153075000Y-97450000D01*
X153635328Y-97450000D01*
X153635344Y-97449999D01*
X153694872Y-97443598D01*
X153694879Y-97443596D01*
X153829586Y-97393354D01*
X153829593Y-97393350D01*
X153944687Y-97307190D01*
X153944690Y-97307187D01*
X154030850Y-97192093D01*
X154030854Y-97192086D01*
X154081096Y-97057379D01*
X154081098Y-97057372D01*
X154087499Y-96997844D01*
X154087500Y-96997827D01*
X154087500Y-96900000D01*
X153075000Y-96900000D01*
X153075000Y-97450000D01*
X152575000Y-97450000D01*
X152575000Y-96574499D01*
X152594685Y-96507460D01*
X152647489Y-96461705D01*
X152698997Y-96450499D01*
X153635372Y-96450499D01*
X153694983Y-96444091D01*
X153790896Y-96408318D01*
X153834229Y-96400500D01*
X154077770Y-96400500D01*
X154144809Y-96420185D01*
X154165451Y-96436819D01*
X154703181Y-96974549D01*
X154736666Y-97035872D01*
X154739500Y-97062230D01*
X154739500Y-105942298D01*
X154719815Y-106009337D01*
X154686625Y-106043872D01*
X154618595Y-106091507D01*
X154451505Y-106258597D01*
X154403874Y-106326623D01*
X154349297Y-106370248D01*
X154302299Y-106379500D01*
X151227701Y-106379500D01*
X151160662Y-106359815D01*
X151126126Y-106326623D01*
X151078494Y-106258597D01*
X150911402Y-106091506D01*
X150911395Y-106091501D01*
X150717834Y-105955967D01*
X150717830Y-105955965D01*
X150667835Y-105932652D01*
X150503663Y-105856097D01*
X150503659Y-105856096D01*
X150503655Y-105856094D01*
X150275413Y-105794938D01*
X150275403Y-105794936D01*
X150040001Y-105774341D01*
X150039999Y-105774341D01*
X149804596Y-105794936D01*
X149804586Y-105794938D01*
X149576344Y-105856094D01*
X149576335Y-105856098D01*
X149362171Y-105955964D01*
X149362169Y-105955965D01*
X149168597Y-106091505D01*
X149001506Y-106258596D01*
X148953874Y-106326623D01*
X148899297Y-106370248D01*
X148852299Y-106379500D01*
X145077701Y-106379500D01*
X145010662Y-106359815D01*
X144976126Y-106326623D01*
X144928494Y-106258597D01*
X144761402Y-106091506D01*
X144761395Y-106091501D01*
X144567834Y-105955967D01*
X144567830Y-105955965D01*
X144517835Y-105932652D01*
X144353663Y-105856097D01*
X144353659Y-105856096D01*
X144353655Y-105856094D01*
X144125413Y-105794938D01*
X144125403Y-105794936D01*
X143890001Y-105774341D01*
X143889999Y-105774341D01*
X143654596Y-105794936D01*
X143654586Y-105794938D01*
X143426344Y-105856094D01*
X143426335Y-105856098D01*
X143212171Y-105955964D01*
X143212169Y-105955965D01*
X143018597Y-106091505D01*
X142851505Y-106258597D01*
X142715965Y-106452169D01*
X142715964Y-106452171D01*
X142616098Y-106666335D01*
X142616094Y-106666344D01*
X142554938Y-106894586D01*
X142554936Y-106894596D01*
X142534341Y-107129999D01*
X126585500Y-107129999D01*
X126585500Y-105831654D01*
X139755001Y-105831654D01*
X139765319Y-105932652D01*
X139819546Y-106096300D01*
X139819551Y-106096311D01*
X139910052Y-106243034D01*
X139910055Y-106243038D01*
X140031961Y-106364944D01*
X140031965Y-106364947D01*
X140178688Y-106455448D01*
X140178699Y-106455453D01*
X140342347Y-106509680D01*
X140443352Y-106519999D01*
X140480000Y-106519999D01*
X140980000Y-106519999D01*
X141016640Y-106519999D01*
X141016654Y-106519998D01*
X141117652Y-106509680D01*
X141281300Y-106455453D01*
X141281311Y-106455448D01*
X141428034Y-106364947D01*
X141428038Y-106364944D01*
X141549944Y-106243038D01*
X141549947Y-106243034D01*
X141640448Y-106096311D01*
X141640453Y-106096300D01*
X141694680Y-105932652D01*
X141704999Y-105831654D01*
X141705000Y-105831641D01*
X141705000Y-105782500D01*
X140980000Y-105782500D01*
X140980000Y-106519999D01*
X140480000Y-106519999D01*
X140480000Y-105782500D01*
X139755001Y-105782500D01*
X139755001Y-105831654D01*
X126585500Y-105831654D01*
X126585500Y-99262155D01*
X133220000Y-99262155D01*
X133220000Y-99960000D01*
X134071518Y-99960000D01*
X134060889Y-99978409D01*
X134020000Y-100131009D01*
X134020000Y-100288991D01*
X134060889Y-100441591D01*
X134071518Y-100460000D01*
X133220000Y-100460000D01*
X133220000Y-101157844D01*
X133226401Y-101217372D01*
X133226403Y-101217379D01*
X133276645Y-101352086D01*
X133276649Y-101352093D01*
X133362809Y-101467187D01*
X133362812Y-101467190D01*
X133477906Y-101553350D01*
X133477913Y-101553354D01*
X133612620Y-101603596D01*
X133612627Y-101603598D01*
X133672155Y-101609999D01*
X133672172Y-101610000D01*
X134370000Y-101610000D01*
X134370000Y-100758482D01*
X134388409Y-100769111D01*
X134541009Y-100810000D01*
X134698991Y-100810000D01*
X134851591Y-100769111D01*
X134870000Y-100758482D01*
X134870000Y-101610000D01*
X135567828Y-101610000D01*
X135567844Y-101609999D01*
X135627372Y-101603598D01*
X135627379Y-101603596D01*
X135762086Y-101553354D01*
X135762093Y-101553350D01*
X135877187Y-101467190D01*
X135877190Y-101467187D01*
X135963350Y-101352093D01*
X135963354Y-101352086D01*
X136013596Y-101217379D01*
X136013598Y-101217372D01*
X136019999Y-101157844D01*
X136020000Y-101157827D01*
X136020000Y-100460000D01*
X135168482Y-100460000D01*
X135179111Y-100441591D01*
X135220000Y-100288991D01*
X135220000Y-100131009D01*
X135179111Y-99978409D01*
X135168482Y-99960000D01*
X136020000Y-99960000D01*
X136020000Y-99262172D01*
X136019999Y-99262155D01*
X136013598Y-99202627D01*
X136013596Y-99202620D01*
X135963354Y-99067913D01*
X135963350Y-99067906D01*
X135877190Y-98952812D01*
X135877187Y-98952809D01*
X135762093Y-98866649D01*
X135762086Y-98866645D01*
X135627379Y-98816403D01*
X135627372Y-98816401D01*
X135567844Y-98810000D01*
X134870000Y-98810000D01*
X134870000Y-99661517D01*
X134851591Y-99650889D01*
X134698991Y-99610000D01*
X134541009Y-99610000D01*
X134388409Y-99650889D01*
X134370000Y-99661517D01*
X134370000Y-98810000D01*
X133672155Y-98810000D01*
X133612627Y-98816401D01*
X133612620Y-98816403D01*
X133477913Y-98866645D01*
X133477906Y-98866649D01*
X133362812Y-98952809D01*
X133362809Y-98952812D01*
X133276649Y-99067906D01*
X133276645Y-99067913D01*
X133226403Y-99202620D01*
X133226401Y-99202627D01*
X133220000Y-99262155D01*
X126585500Y-99262155D01*
X126585500Y-94988322D01*
X129325001Y-94988322D01*
X129335144Y-95087607D01*
X129388452Y-95248481D01*
X129388457Y-95248492D01*
X129477424Y-95392728D01*
X129477427Y-95392732D01*
X129597267Y-95512572D01*
X129597271Y-95512575D01*
X129741507Y-95601542D01*
X129741518Y-95601547D01*
X129902393Y-95654855D01*
X130001683Y-95664999D01*
X130025000Y-95664998D01*
X130025000Y-94940000D01*
X129325001Y-94940000D01*
X129325001Y-94988322D01*
X126585500Y-94988322D01*
X126585500Y-94391677D01*
X129325000Y-94391677D01*
X129325000Y-94440000D01*
X130025000Y-94440000D01*
X130025000Y-93714999D01*
X130001693Y-93715000D01*
X130001674Y-93715001D01*
X129902392Y-93725144D01*
X129741518Y-93778452D01*
X129741507Y-93778457D01*
X129597271Y-93867424D01*
X129597267Y-93867427D01*
X129477427Y-93987267D01*
X129477424Y-93987271D01*
X129388457Y-94131507D01*
X129388452Y-94131518D01*
X129335144Y-94292393D01*
X129325000Y-94391677D01*
X126585500Y-94391677D01*
X126585500Y-91208322D01*
X129325001Y-91208322D01*
X129335144Y-91307607D01*
X129388452Y-91468481D01*
X129388457Y-91468492D01*
X129477424Y-91612728D01*
X129477427Y-91612732D01*
X129597267Y-91732572D01*
X129597271Y-91732575D01*
X129741507Y-91821542D01*
X129741518Y-91821547D01*
X129902393Y-91874855D01*
X130001683Y-91884999D01*
X130025000Y-91884998D01*
X130025000Y-91160000D01*
X129325001Y-91160000D01*
X129325001Y-91208322D01*
X126585500Y-91208322D01*
X126585500Y-90611677D01*
X129325000Y-90611677D01*
X129325000Y-90660000D01*
X130025000Y-90660000D01*
X130025000Y-89934999D01*
X130001693Y-89935000D01*
X130001674Y-89935001D01*
X129902392Y-89945144D01*
X129741518Y-89998452D01*
X129741507Y-89998457D01*
X129597271Y-90087424D01*
X129597267Y-90087427D01*
X129477427Y-90207267D01*
X129477424Y-90207271D01*
X129388457Y-90351507D01*
X129388452Y-90351518D01*
X129335144Y-90512393D01*
X129325000Y-90611677D01*
X126585500Y-90611677D01*
X126585500Y-87428322D01*
X129295001Y-87428322D01*
X129305144Y-87527607D01*
X129358452Y-87688481D01*
X129358457Y-87688492D01*
X129447424Y-87832728D01*
X129447427Y-87832732D01*
X129567267Y-87952572D01*
X129567271Y-87952575D01*
X129711507Y-88041542D01*
X129711518Y-88041547D01*
X129872393Y-88094855D01*
X129971683Y-88104999D01*
X129995000Y-88104998D01*
X129995000Y-87380000D01*
X129295001Y-87380000D01*
X129295001Y-87428322D01*
X126585500Y-87428322D01*
X126585500Y-86831677D01*
X129295000Y-86831677D01*
X129295000Y-86880000D01*
X129995000Y-86880000D01*
X129995000Y-86154999D01*
X129971693Y-86155000D01*
X129971674Y-86155001D01*
X129872392Y-86165144D01*
X129711518Y-86218452D01*
X129711507Y-86218457D01*
X129567271Y-86307424D01*
X129567267Y-86307427D01*
X129447427Y-86427267D01*
X129447424Y-86427271D01*
X129358457Y-86571507D01*
X129358452Y-86571518D01*
X129305144Y-86732393D01*
X129295000Y-86831677D01*
X126585500Y-86831677D01*
X126585500Y-83648322D01*
X129315001Y-83648322D01*
X129325144Y-83747607D01*
X129378452Y-83908481D01*
X129378457Y-83908492D01*
X129467424Y-84052728D01*
X129467427Y-84052732D01*
X129587267Y-84172572D01*
X129587271Y-84172575D01*
X129731507Y-84261542D01*
X129731518Y-84261547D01*
X129892393Y-84314855D01*
X129991683Y-84324999D01*
X130015000Y-84324998D01*
X130015000Y-83600000D01*
X129315001Y-83600000D01*
X129315001Y-83648322D01*
X126585500Y-83648322D01*
X126585500Y-83051677D01*
X129315000Y-83051677D01*
X129315000Y-83100000D01*
X130015000Y-83100000D01*
X130015000Y-82374999D01*
X129991693Y-82375000D01*
X129991674Y-82375001D01*
X129892392Y-82385144D01*
X129731518Y-82438452D01*
X129731507Y-82438457D01*
X129587271Y-82527424D01*
X129587267Y-82527427D01*
X129467427Y-82647267D01*
X129467424Y-82647271D01*
X129378457Y-82791507D01*
X129378452Y-82791518D01*
X129325144Y-82952393D01*
X129315000Y-83051677D01*
X126585500Y-83051677D01*
X126585500Y-82144000D01*
X130474500Y-82144000D01*
X130474500Y-82402255D01*
X130485078Y-82505127D01*
X130495349Y-82554541D01*
X130501165Y-82572859D01*
X130509187Y-82598128D01*
X130515000Y-82635649D01*
X130515000Y-84069305D01*
X130509977Y-84104238D01*
X130501512Y-84133066D01*
X130494976Y-84155326D01*
X130492496Y-84172575D01*
X130474500Y-84297744D01*
X130474500Y-86169919D01*
X130485078Y-86272791D01*
X130492277Y-86307427D01*
X130492405Y-86308040D01*
X130495000Y-86333276D01*
X130495000Y-87938628D01*
X130493738Y-87956275D01*
X130474500Y-88090081D01*
X130474500Y-89968440D01*
X130484899Y-90069549D01*
X130485080Y-90071304D01*
X130487854Y-90084651D01*
X130495352Y-90120718D01*
X130495352Y-90120719D01*
X130519187Y-90195794D01*
X130525000Y-90233316D01*
X130525000Y-91592504D01*
X130515195Y-91637588D01*
X130516210Y-91637967D01*
X130514662Y-91642114D01*
X130494976Y-91709157D01*
X130474500Y-91851576D01*
X130474500Y-93748440D01*
X130485079Y-93851294D01*
X130485080Y-93851304D01*
X130495352Y-93900718D01*
X130495352Y-93900719D01*
X130519187Y-93975794D01*
X130525000Y-94013316D01*
X130525000Y-95372504D01*
X130515195Y-95417588D01*
X130516210Y-95417967D01*
X130514662Y-95422114D01*
X130494976Y-95489157D01*
X130474500Y-95631576D01*
X130474500Y-95638640D01*
X130477397Y-95692688D01*
X130477397Y-95692689D01*
X130480229Y-95719022D01*
X130480232Y-95719049D01*
X130488885Y-95772445D01*
X130488885Y-95772447D01*
X130536275Y-95899500D01*
X130539168Y-95907257D01*
X130572653Y-95968580D01*
X130658877Y-96083761D01*
X130658881Y-96083765D01*
X130658886Y-96083771D01*
X130782134Y-96207018D01*
X130896239Y-96321123D01*
X130896255Y-96321137D01*
X130896262Y-96321144D01*
X130936480Y-96357271D01*
X130936492Y-96357281D01*
X130936500Y-96357288D01*
X130957142Y-96373922D01*
X131001026Y-96405567D01*
X131131903Y-96465338D01*
X131198942Y-96485023D01*
X131198946Y-96485024D01*
X131341362Y-96505500D01*
X131341365Y-96505500D01*
X136209372Y-96505500D01*
X136209379Y-96505500D01*
X136321149Y-96492989D01*
X136367071Y-96482577D01*
X136374617Y-96480867D01*
X136374618Y-96480866D01*
X136374625Y-96480865D01*
X136480854Y-96443954D01*
X136600515Y-96364062D01*
X136652511Y-96317391D01*
X136652515Y-96317387D01*
X136744820Y-96207018D01*
X136802292Y-96075115D01*
X136820801Y-96007741D01*
X136838783Y-95864991D01*
X136837111Y-95769422D01*
X136855620Y-95702050D01*
X136907616Y-95655379D01*
X136973693Y-95643897D01*
X137038323Y-95650500D01*
X137636676Y-95650499D01*
X137636684Y-95650498D01*
X137636687Y-95650498D01*
X137692030Y-95644844D01*
X137737753Y-95640174D01*
X137901516Y-95585908D01*
X138048350Y-95495340D01*
X138170340Y-95373350D01*
X138194362Y-95334404D01*
X138246310Y-95287679D01*
X138299901Y-95275500D01*
X143750217Y-95275500D01*
X143817256Y-95295185D01*
X143863011Y-95347989D01*
X143872955Y-95417147D01*
X143843930Y-95480703D01*
X143837898Y-95487181D01*
X136651899Y-102673181D01*
X136590576Y-102706666D01*
X136564218Y-102709500D01*
X135656464Y-102709500D01*
X135589425Y-102689815D01*
X135572479Y-102676728D01*
X135571794Y-102676098D01*
X135571784Y-102676087D01*
X135442524Y-102575480D01*
X135388628Y-102533531D01*
X135184504Y-102423064D01*
X135184495Y-102423061D01*
X134964984Y-102347702D01*
X134774612Y-102315935D01*
X134736049Y-102309500D01*
X134503951Y-102309500D01*
X134465388Y-102315935D01*
X134275015Y-102347702D01*
X134055504Y-102423061D01*
X134055495Y-102423064D01*
X133851371Y-102533531D01*
X133851365Y-102533535D01*
X133668222Y-102676081D01*
X133668219Y-102676084D01*
X133511016Y-102846852D01*
X133384075Y-103041151D01*
X133290842Y-103253699D01*
X133233866Y-103478691D01*
X133233864Y-103478702D01*
X133214700Y-103709993D01*
X133214700Y-103710006D01*
X133233864Y-103941297D01*
X133233866Y-103941308D01*
X133290842Y-104166300D01*
X133384075Y-104378848D01*
X133511016Y-104573147D01*
X133511019Y-104573151D01*
X133511021Y-104573153D01*
X133668216Y-104743913D01*
X133668219Y-104743915D01*
X133668222Y-104743918D01*
X133851365Y-104886464D01*
X133851371Y-104886468D01*
X133851374Y-104886470D01*
X134055497Y-104996936D01*
X134169487Y-105036068D01*
X134275015Y-105072297D01*
X134275017Y-105072297D01*
X134275019Y-105072298D01*
X134503951Y-105110500D01*
X134503952Y-105110500D01*
X134736048Y-105110500D01*
X134736049Y-105110500D01*
X134964981Y-105072298D01*
X135184503Y-104996936D01*
X135388626Y-104886470D01*
X135571784Y-104743913D01*
X135571800Y-104743895D01*
X135572479Y-104743272D01*
X135572827Y-104743100D01*
X135575830Y-104740763D01*
X135576310Y-104741380D01*
X135635133Y-104712348D01*
X135656464Y-104710500D01*
X137128543Y-104710500D01*
X137213421Y-104693616D01*
X137255862Y-104685174D01*
X137321836Y-104672051D01*
X137375165Y-104649961D01*
X137503914Y-104596632D01*
X137667782Y-104487139D01*
X137807139Y-104347782D01*
X137807139Y-104347780D01*
X137817347Y-104337573D01*
X137817348Y-104337570D01*
X139917821Y-102237098D01*
X139979142Y-102203615D01*
X140048834Y-102208599D01*
X140104767Y-102250471D01*
X140129184Y-102315935D01*
X140129500Y-102324781D01*
X140129500Y-102745098D01*
X140109815Y-102812137D01*
X140070598Y-102850636D01*
X140031650Y-102874659D01*
X139909661Y-102996648D01*
X139819093Y-103143481D01*
X139819092Y-103143484D01*
X139764826Y-103307247D01*
X139764826Y-103307248D01*
X139764825Y-103307248D01*
X139754500Y-103408315D01*
X139754500Y-104006669D01*
X139754501Y-104006687D01*
X139764825Y-104107752D01*
X139801109Y-104217249D01*
X139819092Y-104271516D01*
X139866131Y-104347779D01*
X139909661Y-104418351D01*
X140023982Y-104532672D01*
X140057467Y-104593995D01*
X140052483Y-104663687D01*
X140023983Y-104708034D01*
X139910052Y-104821965D01*
X139819551Y-104968688D01*
X139819546Y-104968699D01*
X139765319Y-105132347D01*
X139755000Y-105233345D01*
X139755000Y-105282500D01*
X141704999Y-105282500D01*
X141704999Y-105233360D01*
X141704998Y-105233345D01*
X141694680Y-105132347D01*
X141640453Y-104968699D01*
X141640448Y-104968688D01*
X141549947Y-104821965D01*
X141549944Y-104821961D01*
X141436017Y-104708034D01*
X141402532Y-104646711D01*
X141407516Y-104577019D01*
X141436013Y-104532676D01*
X141550340Y-104418350D01*
X141640908Y-104271516D01*
X141695174Y-104107753D01*
X141705500Y-104006677D01*
X141705499Y-103408324D01*
X141695174Y-103307247D01*
X141640908Y-103143484D01*
X141550340Y-102996650D01*
X141428350Y-102874660D01*
X141428349Y-102874659D01*
X141389402Y-102850636D01*
X141342678Y-102798687D01*
X141330500Y-102745098D01*
X141330500Y-100875781D01*
X141350185Y-100808742D01*
X141366814Y-100788105D01*
X144212819Y-97942099D01*
X144274142Y-97908615D01*
X144343834Y-97913599D01*
X144399767Y-97955471D01*
X144424184Y-98020935D01*
X144424500Y-98029781D01*
X144424500Y-98684995D01*
X144404815Y-98752034D01*
X144365600Y-98790532D01*
X144346954Y-98802033D01*
X144227029Y-98921959D01*
X144138001Y-99066294D01*
X144137996Y-99066305D01*
X144084651Y-99227290D01*
X144074500Y-99326647D01*
X144074500Y-99923337D01*
X144074501Y-99923355D01*
X144084650Y-100022707D01*
X144084651Y-100022710D01*
X144137996Y-100183694D01*
X144138001Y-100183705D01*
X144227029Y-100328040D01*
X144227032Y-100328044D01*
X144346956Y-100447968D01*
X144365596Y-100459465D01*
X144412321Y-100511412D01*
X144424500Y-100565004D01*
X144424500Y-102784995D01*
X144404815Y-102852034D01*
X144365600Y-102890532D01*
X144346954Y-102902033D01*
X144227029Y-103021959D01*
X144138001Y-103166294D01*
X144137996Y-103166305D01*
X144084651Y-103327290D01*
X144074500Y-103426647D01*
X144074500Y-104023337D01*
X144074501Y-104023355D01*
X144084650Y-104122707D01*
X144084651Y-104122710D01*
X144137996Y-104283694D01*
X144138001Y-104283705D01*
X144227029Y-104428040D01*
X144227032Y-104428044D01*
X144346955Y-104547967D01*
X144346959Y-104547970D01*
X144491294Y-104636998D01*
X144491297Y-104636999D01*
X144491303Y-104637003D01*
X144652292Y-104690349D01*
X144751655Y-104700500D01*
X145298344Y-104700499D01*
X145298352Y-104700498D01*
X145298355Y-104700498D01*
X145352760Y-104694940D01*
X145397708Y-104690349D01*
X145558697Y-104637003D01*
X145703044Y-104547968D01*
X145712668Y-104538343D01*
X145773987Y-104504856D01*
X145843679Y-104509835D01*
X145888034Y-104538339D01*
X145897267Y-104547572D01*
X145897271Y-104547575D01*
X146041507Y-104636542D01*
X146041518Y-104636547D01*
X146202393Y-104689855D01*
X146301683Y-104699999D01*
X146825000Y-104699999D01*
X146848308Y-104699999D01*
X146848322Y-104699998D01*
X146947607Y-104689855D01*
X147108481Y-104636547D01*
X147108492Y-104636542D01*
X147252728Y-104547575D01*
X147252732Y-104547572D01*
X147372572Y-104427732D01*
X147372575Y-104427728D01*
X147461542Y-104283492D01*
X147461547Y-104283481D01*
X147514855Y-104122606D01*
X147524999Y-104023322D01*
X147525000Y-104023309D01*
X147525000Y-103975000D01*
X146825000Y-103975000D01*
X146825000Y-104699999D01*
X146301683Y-104699999D01*
X146325000Y-104699998D01*
X146325000Y-103475000D01*
X146825000Y-103475000D01*
X147524999Y-103475000D01*
X147524999Y-103426692D01*
X147524998Y-103426677D01*
X147514855Y-103327392D01*
X147461547Y-103166518D01*
X147461542Y-103166507D01*
X147372575Y-103022271D01*
X147372572Y-103022267D01*
X147252732Y-102902427D01*
X147252728Y-102902424D01*
X147108492Y-102813457D01*
X147108481Y-102813452D01*
X146947606Y-102760144D01*
X146848322Y-102750000D01*
X146825000Y-102750000D01*
X146825000Y-103475000D01*
X146325000Y-103475000D01*
X146325000Y-102749999D01*
X146301693Y-102750000D01*
X146301674Y-102750001D01*
X146202392Y-102760144D01*
X146041518Y-102813452D01*
X146041507Y-102813457D01*
X145897271Y-102902424D01*
X145897264Y-102902430D01*
X145888028Y-102911665D01*
X145826703Y-102945146D01*
X145757011Y-102940157D01*
X145712672Y-102911659D01*
X145703047Y-102902034D01*
X145684400Y-102890532D01*
X145637677Y-102838582D01*
X145625500Y-102784995D01*
X145625500Y-100565004D01*
X145645185Y-100497965D01*
X145684403Y-100459465D01*
X145703044Y-100447968D01*
X145712668Y-100438343D01*
X145773987Y-100404856D01*
X145843679Y-100409835D01*
X145888034Y-100438339D01*
X145897267Y-100447572D01*
X145897271Y-100447575D01*
X146041507Y-100536542D01*
X146041518Y-100536547D01*
X146202393Y-100589855D01*
X146301683Y-100599999D01*
X146825000Y-100599999D01*
X146848308Y-100599999D01*
X146848322Y-100599998D01*
X146947607Y-100589855D01*
X147108481Y-100536547D01*
X147108492Y-100536542D01*
X147252728Y-100447575D01*
X147252732Y-100447572D01*
X147372572Y-100327732D01*
X147372575Y-100327728D01*
X147461542Y-100183492D01*
X147461547Y-100183481D01*
X147514855Y-100022606D01*
X147524999Y-99923322D01*
X147525000Y-99923309D01*
X147525000Y-99875000D01*
X146825000Y-99875000D01*
X146825000Y-100599999D01*
X146301683Y-100599999D01*
X146325000Y-100599998D01*
X146325000Y-99375000D01*
X146825000Y-99375000D01*
X147524999Y-99375000D01*
X147524999Y-99326692D01*
X147524998Y-99326677D01*
X147514855Y-99227392D01*
X147461547Y-99066518D01*
X147461542Y-99066507D01*
X147372575Y-98922271D01*
X147372572Y-98922267D01*
X147252732Y-98802427D01*
X147252728Y-98802424D01*
X147108492Y-98713457D01*
X147108481Y-98713452D01*
X146947606Y-98660144D01*
X146848322Y-98650000D01*
X146825000Y-98650000D01*
X146825000Y-99375000D01*
X146325000Y-99375000D01*
X146325000Y-98649999D01*
X146301693Y-98650000D01*
X146301674Y-98650001D01*
X146202392Y-98660144D01*
X146041518Y-98713452D01*
X146041507Y-98713457D01*
X145897271Y-98802424D01*
X145897264Y-98802430D01*
X145888028Y-98811665D01*
X145826703Y-98845146D01*
X145757011Y-98840157D01*
X145712672Y-98811659D01*
X145703047Y-98802034D01*
X145684400Y-98790532D01*
X145637677Y-98738582D01*
X145625500Y-98684995D01*
X145625500Y-98175097D01*
X145645185Y-98108058D01*
X145661819Y-98087416D01*
X145953292Y-97795943D01*
X146310156Y-97439078D01*
X146371477Y-97405595D01*
X146441166Y-97410578D01*
X146531017Y-97444091D01*
X146590627Y-97450500D01*
X148211372Y-97450499D01*
X148270983Y-97444091D01*
X148405831Y-97393796D01*
X148521046Y-97307546D01*
X148607296Y-97192331D01*
X148657591Y-97057483D01*
X148664000Y-96997873D01*
X148663999Y-96916952D01*
X148683683Y-96849917D01*
X148736486Y-96804161D01*
X148801255Y-96793666D01*
X148860155Y-96799999D01*
X148860172Y-96800000D01*
X149863000Y-96800000D01*
X149863000Y-92500000D01*
X148860155Y-92500000D01*
X148801255Y-92506334D01*
X148732496Y-92493930D01*
X148681358Y-92446320D01*
X148663999Y-92383045D01*
X148663999Y-92302129D01*
X148663998Y-92302123D01*
X148663997Y-92302116D01*
X148657591Y-92242517D01*
X148607296Y-92107669D01*
X148607295Y-92107668D01*
X148607293Y-92107664D01*
X148521047Y-91992455D01*
X148521044Y-91992452D01*
X148405835Y-91906206D01*
X148405828Y-91906202D01*
X148270982Y-91855908D01*
X148270983Y-91855908D01*
X148211383Y-91849501D01*
X148211381Y-91849500D01*
X148211373Y-91849500D01*
X148211365Y-91849500D01*
X148041434Y-91849500D01*
X147974395Y-91829815D01*
X147972543Y-91828602D01*
X147874919Y-91763371D01*
X147874907Y-91763364D01*
X147692839Y-91687950D01*
X147692829Y-91687947D01*
X147499543Y-91649500D01*
X147499541Y-91649500D01*
X141390782Y-91649500D01*
X141323743Y-91629815D01*
X141303101Y-91613181D01*
X140411819Y-90721899D01*
X140378334Y-90660576D01*
X140375500Y-90634218D01*
X140375500Y-84474500D01*
X140395185Y-84407461D01*
X140447989Y-84361706D01*
X140499500Y-84350500D01*
X141933536Y-84350500D01*
X142000575Y-84370185D01*
X142017521Y-84383272D01*
X142018204Y-84383901D01*
X142018216Y-84383913D01*
X142134603Y-84474500D01*
X142186250Y-84514699D01*
X142201374Y-84526470D01*
X142405497Y-84636936D01*
X142508553Y-84672315D01*
X142625015Y-84712297D01*
X142625017Y-84712297D01*
X142625019Y-84712298D01*
X142853951Y-84750500D01*
X142853952Y-84750500D01*
X143086048Y-84750500D01*
X143086049Y-84750500D01*
X143314981Y-84712298D01*
X143534503Y-84636936D01*
X143738626Y-84526470D01*
X143753750Y-84514699D01*
X143918050Y-84386819D01*
X143921784Y-84383913D01*
X144078979Y-84213153D01*
X144205924Y-84018849D01*
X144299157Y-83806300D01*
X144356134Y-83581305D01*
X144356135Y-83581297D01*
X144375300Y-83350006D01*
X144375300Y-83349993D01*
X144356135Y-83118702D01*
X144356133Y-83118691D01*
X144299157Y-82893699D01*
X144205924Y-82681151D01*
X144078983Y-82486852D01*
X144078980Y-82486849D01*
X144078979Y-82486847D01*
X144001015Y-82402155D01*
X145070000Y-82402155D01*
X145070000Y-83100000D01*
X145921518Y-83100000D01*
X145910889Y-83118409D01*
X145870000Y-83271009D01*
X145870000Y-83428991D01*
X145910889Y-83581591D01*
X145921518Y-83600000D01*
X145070000Y-83600000D01*
X145070000Y-84297844D01*
X145076401Y-84357372D01*
X145076403Y-84357379D01*
X145126645Y-84492086D01*
X145126649Y-84492093D01*
X145212809Y-84607187D01*
X145212812Y-84607190D01*
X145327906Y-84693350D01*
X145327913Y-84693354D01*
X145462620Y-84743596D01*
X145462627Y-84743598D01*
X145522155Y-84749999D01*
X145522172Y-84750000D01*
X146220000Y-84750000D01*
X146220000Y-83898482D01*
X146238409Y-83909111D01*
X146391009Y-83950000D01*
X146548991Y-83950000D01*
X146701591Y-83909111D01*
X146720000Y-83898482D01*
X146720000Y-84750000D01*
X147417828Y-84750000D01*
X147417844Y-84749999D01*
X147477372Y-84743598D01*
X147477379Y-84743596D01*
X147612086Y-84693354D01*
X147612093Y-84693350D01*
X147727187Y-84607190D01*
X147727190Y-84607187D01*
X147813350Y-84492093D01*
X147813354Y-84492086D01*
X147863596Y-84357379D01*
X147863598Y-84357372D01*
X147869999Y-84297844D01*
X147870000Y-84297827D01*
X147870000Y-83600000D01*
X147018482Y-83600000D01*
X147029111Y-83581591D01*
X147070000Y-83428991D01*
X147070000Y-83271009D01*
X147029111Y-83118409D01*
X147018482Y-83100000D01*
X147870000Y-83100000D01*
X147870000Y-82402172D01*
X147869999Y-82402155D01*
X147863598Y-82342627D01*
X147863596Y-82342620D01*
X147813354Y-82207913D01*
X147813350Y-82207906D01*
X147727190Y-82092812D01*
X147727187Y-82092809D01*
X147612093Y-82006649D01*
X147612086Y-82006645D01*
X147477379Y-81956403D01*
X147477372Y-81956401D01*
X147417844Y-81950000D01*
X146720000Y-81950000D01*
X146720000Y-82801517D01*
X146701591Y-82790889D01*
X146548991Y-82750000D01*
X146391009Y-82750000D01*
X146238409Y-82790889D01*
X146220000Y-82801517D01*
X146220000Y-81950000D01*
X145522155Y-81950000D01*
X145462627Y-81956401D01*
X145462620Y-81956403D01*
X145327913Y-82006645D01*
X145327906Y-82006649D01*
X145212812Y-82092809D01*
X145212809Y-82092812D01*
X145126649Y-82207906D01*
X145126645Y-82207913D01*
X145076403Y-82342620D01*
X145076401Y-82342627D01*
X145070000Y-82402155D01*
X144001015Y-82402155D01*
X143921784Y-82316087D01*
X143921779Y-82316083D01*
X143921777Y-82316081D01*
X143738634Y-82173535D01*
X143738628Y-82173531D01*
X143534504Y-82063064D01*
X143534495Y-82063061D01*
X143314984Y-81987702D01*
X143127404Y-81956401D01*
X143086049Y-81949500D01*
X142853951Y-81949500D01*
X142812596Y-81956401D01*
X142625015Y-81987702D01*
X142405504Y-82063061D01*
X142405495Y-82063064D01*
X142201371Y-82173531D01*
X142112739Y-82242517D01*
X142018216Y-82316087D01*
X142018210Y-82316092D01*
X142017521Y-82316728D01*
X142017172Y-82316899D01*
X142014170Y-82319237D01*
X142013689Y-82318619D01*
X141954867Y-82347652D01*
X141933536Y-82349500D01*
X135151455Y-82349500D01*
X135054812Y-82368724D01*
X134958170Y-82387947D01*
X134958162Y-82387949D01*
X134923626Y-82402255D01*
X134776088Y-82463366D01*
X134776079Y-82463371D01*
X134612219Y-82572859D01*
X134549430Y-82635649D01*
X134472861Y-82712218D01*
X134472858Y-82712221D01*
X133869882Y-83315196D01*
X133808559Y-83348681D01*
X133738867Y-83343697D01*
X133682934Y-83301825D01*
X133658517Y-83236361D01*
X133658202Y-83228136D01*
X133655501Y-82675161D01*
X133655500Y-82674555D01*
X133655500Y-82144010D01*
X133655500Y-82144000D01*
X133643947Y-82036544D01*
X133632741Y-81985033D01*
X133623212Y-81956403D01*
X133598616Y-81882502D01*
X133598613Y-81882496D01*
X133527014Y-81771087D01*
X133520825Y-81761457D01*
X133520820Y-81761451D01*
X133475076Y-81708659D01*
X133475072Y-81708656D01*
X133475070Y-81708653D01*
X133366336Y-81614433D01*
X133366333Y-81614431D01*
X133366331Y-81614430D01*
X133235465Y-81554664D01*
X133235460Y-81554662D01*
X133235459Y-81554662D01*
X133168420Y-81534977D01*
X133168422Y-81534977D01*
X133168417Y-81534976D01*
X133106347Y-81526052D01*
X133026000Y-81514500D01*
X131104000Y-81514500D01*
X131103991Y-81514500D01*
X131103990Y-81514501D01*
X130996549Y-81526052D01*
X130996537Y-81526054D01*
X130945027Y-81537260D01*
X130842502Y-81571383D01*
X130842496Y-81571386D01*
X130721462Y-81649171D01*
X130721451Y-81649179D01*
X130668659Y-81694923D01*
X130574433Y-81803664D01*
X130574430Y-81803668D01*
X130514664Y-81934534D01*
X130494976Y-82001582D01*
X130489949Y-82036549D01*
X130474500Y-82144000D01*
X126585500Y-82144000D01*
X126585500Y-75464500D01*
X126605185Y-75397461D01*
X126657989Y-75351706D01*
X126709500Y-75340500D01*
X179475500Y-75340500D01*
X179542539Y-75360185D01*
G37*
%TD.AperFunction*%
%TD*%
%TA.AperFunction,Conductor*%
%TO.N,Net-(IC1-VIN)*%
G36*
X133093039Y-82039685D02*
G01*
X133138794Y-82092489D01*
X133150000Y-82144000D01*
X133150000Y-82676199D01*
X133200000Y-92910000D01*
X136158863Y-92896343D01*
X136225992Y-92915718D01*
X136271990Y-92968310D01*
X136283416Y-93018174D01*
X136294904Y-93675051D01*
X136276395Y-93742424D01*
X136224399Y-93789095D01*
X136155425Y-93800247D01*
X136105825Y-93782757D01*
X136076307Y-93764549D01*
X136076300Y-93764546D01*
X135912652Y-93710319D01*
X135811654Y-93700000D01*
X135762500Y-93700000D01*
X135762500Y-95649999D01*
X135811640Y-95649999D01*
X135811654Y-95649998D01*
X135912652Y-95639680D01*
X136076300Y-95585453D01*
X136076307Y-95585450D01*
X136140354Y-95545945D01*
X136207746Y-95527504D01*
X136274410Y-95548426D01*
X136319180Y-95602067D01*
X136329433Y-95649314D01*
X136333360Y-95873831D01*
X136314851Y-95941205D01*
X136262855Y-95987876D01*
X136209379Y-96000000D01*
X131341362Y-96000000D01*
X131274323Y-95980315D01*
X131253681Y-95963681D01*
X131016319Y-95726319D01*
X130982834Y-95664996D01*
X130980000Y-95638638D01*
X130980000Y-95631575D01*
X130999685Y-95564536D01*
X131052489Y-95518781D01*
X131121647Y-95508837D01*
X131169098Y-95526037D01*
X131291511Y-95601544D01*
X131291518Y-95601547D01*
X131452393Y-95654855D01*
X131551683Y-95664999D01*
X132075000Y-95664999D01*
X132098308Y-95664999D01*
X132098322Y-95664998D01*
X132197607Y-95654855D01*
X132358481Y-95601547D01*
X132358492Y-95601542D01*
X132502728Y-95512575D01*
X132502732Y-95512572D01*
X132622572Y-95392732D01*
X132622575Y-95392728D01*
X132711542Y-95248492D01*
X132711547Y-95248481D01*
X132764855Y-95087606D01*
X132774999Y-94988322D01*
X132775000Y-94988309D01*
X132775000Y-94961654D01*
X134525001Y-94961654D01*
X134535319Y-95062652D01*
X134589546Y-95226300D01*
X134589551Y-95226311D01*
X134680052Y-95373034D01*
X134680055Y-95373038D01*
X134801961Y-95494944D01*
X134801965Y-95494947D01*
X134948688Y-95585448D01*
X134948699Y-95585453D01*
X135112347Y-95639680D01*
X135213351Y-95649999D01*
X135262499Y-95649998D01*
X135262500Y-95649998D01*
X135262500Y-94925000D01*
X134525001Y-94925000D01*
X134525001Y-94961654D01*
X132775000Y-94961654D01*
X132775000Y-94940000D01*
X132075000Y-94940000D01*
X132075000Y-95664999D01*
X131551683Y-95664999D01*
X131575000Y-95664998D01*
X131575000Y-94440000D01*
X132075000Y-94440000D01*
X132774999Y-94440000D01*
X132774999Y-94391692D01*
X132774998Y-94391677D01*
X132774658Y-94388345D01*
X134525000Y-94388345D01*
X134525000Y-94425000D01*
X135262500Y-94425000D01*
X135262500Y-93700000D01*
X135262499Y-93699999D01*
X135213361Y-93700000D01*
X135213343Y-93700001D01*
X135112347Y-93710319D01*
X134948699Y-93764546D01*
X134948688Y-93764551D01*
X134801965Y-93855052D01*
X134801961Y-93855055D01*
X134680055Y-93976961D01*
X134680052Y-93976965D01*
X134589551Y-94123688D01*
X134589546Y-94123699D01*
X134535319Y-94287347D01*
X134525000Y-94388345D01*
X132774658Y-94388345D01*
X132764855Y-94292392D01*
X132711547Y-94131518D01*
X132711542Y-94131507D01*
X132622575Y-93987271D01*
X132622572Y-93987267D01*
X132502732Y-93867427D01*
X132502728Y-93867424D01*
X132358492Y-93778457D01*
X132358481Y-93778452D01*
X132197606Y-93725144D01*
X132098322Y-93715000D01*
X132075000Y-93715000D01*
X132075000Y-94440000D01*
X131575000Y-94440000D01*
X131575000Y-93714999D01*
X131551693Y-93715000D01*
X131551674Y-93715001D01*
X131452392Y-93725144D01*
X131291518Y-93778452D01*
X131291507Y-93778457D01*
X131169097Y-93853962D01*
X131101705Y-93872403D01*
X131035041Y-93851481D01*
X130990272Y-93797839D01*
X130980000Y-93748424D01*
X130980000Y-91851575D01*
X130999685Y-91784536D01*
X131052489Y-91738781D01*
X131121647Y-91728837D01*
X131169098Y-91746037D01*
X131291511Y-91821544D01*
X131291518Y-91821547D01*
X131452393Y-91874855D01*
X131551683Y-91884999D01*
X132075000Y-91884999D01*
X132098308Y-91884999D01*
X132098322Y-91884998D01*
X132197607Y-91874855D01*
X132358481Y-91821547D01*
X132358492Y-91821542D01*
X132502728Y-91732575D01*
X132502732Y-91732572D01*
X132622572Y-91612732D01*
X132622575Y-91612728D01*
X132711542Y-91468492D01*
X132711547Y-91468481D01*
X132764855Y-91307606D01*
X132774999Y-91208322D01*
X132775000Y-91208309D01*
X132775000Y-91160000D01*
X132075000Y-91160000D01*
X132075000Y-91884999D01*
X131551683Y-91884999D01*
X131575000Y-91884998D01*
X131575000Y-90660000D01*
X132075000Y-90660000D01*
X132774999Y-90660000D01*
X132774999Y-90611692D01*
X132774998Y-90611677D01*
X132764855Y-90512392D01*
X132711547Y-90351518D01*
X132711542Y-90351507D01*
X132622575Y-90207271D01*
X132622572Y-90207267D01*
X132502732Y-90087427D01*
X132502728Y-90087424D01*
X132358492Y-89998457D01*
X132358481Y-89998452D01*
X132197606Y-89945144D01*
X132098322Y-89935000D01*
X132075000Y-89935000D01*
X132075000Y-90660000D01*
X131575000Y-90660000D01*
X131575000Y-89934999D01*
X131551693Y-89935000D01*
X131551674Y-89935001D01*
X131452392Y-89945144D01*
X131291518Y-89998452D01*
X131291507Y-89998457D01*
X131169097Y-90073962D01*
X131101705Y-90092403D01*
X131035041Y-90071481D01*
X130990272Y-90017839D01*
X130980000Y-89968424D01*
X130980000Y-88090080D01*
X130999685Y-88023041D01*
X131052489Y-87977286D01*
X131121647Y-87967342D01*
X131169098Y-87984542D01*
X131261511Y-88041544D01*
X131261518Y-88041547D01*
X131422393Y-88094855D01*
X131521683Y-88104999D01*
X132045000Y-88104999D01*
X132068308Y-88104999D01*
X132068322Y-88104998D01*
X132167607Y-88094855D01*
X132328481Y-88041547D01*
X132328492Y-88041542D01*
X132472728Y-87952575D01*
X132472732Y-87952572D01*
X132592572Y-87832732D01*
X132592575Y-87832728D01*
X132681542Y-87688492D01*
X132681547Y-87688481D01*
X132734855Y-87527606D01*
X132744999Y-87428322D01*
X132745000Y-87428309D01*
X132745000Y-87380000D01*
X132045000Y-87380000D01*
X132045000Y-88104999D01*
X131521683Y-88104999D01*
X131545000Y-88104998D01*
X131545000Y-86880000D01*
X132045000Y-86880000D01*
X132744999Y-86880000D01*
X132744999Y-86831692D01*
X132744998Y-86831677D01*
X132734855Y-86732392D01*
X132681547Y-86571518D01*
X132681542Y-86571507D01*
X132592575Y-86427271D01*
X132592572Y-86427267D01*
X132472732Y-86307427D01*
X132472728Y-86307424D01*
X132328492Y-86218457D01*
X132328481Y-86218452D01*
X132167606Y-86165144D01*
X132068322Y-86155000D01*
X132045000Y-86155000D01*
X132045000Y-86880000D01*
X131545000Y-86880000D01*
X131545000Y-86154999D01*
X131521693Y-86155000D01*
X131521674Y-86155001D01*
X131422392Y-86165144D01*
X131261518Y-86218452D01*
X131261513Y-86218454D01*
X131169097Y-86275458D01*
X131101704Y-86293898D01*
X131035041Y-86272975D01*
X130990271Y-86219333D01*
X130980000Y-86169919D01*
X130980000Y-84297744D01*
X130999685Y-84230705D01*
X131052489Y-84184950D01*
X131121647Y-84175006D01*
X131169097Y-84192206D01*
X131281507Y-84261542D01*
X131281518Y-84261547D01*
X131442393Y-84314855D01*
X131541683Y-84324999D01*
X132065000Y-84324999D01*
X132088308Y-84324999D01*
X132088322Y-84324998D01*
X132187607Y-84314855D01*
X132348481Y-84261547D01*
X132348492Y-84261542D01*
X132492728Y-84172575D01*
X132492732Y-84172572D01*
X132612572Y-84052732D01*
X132612575Y-84052728D01*
X132701542Y-83908492D01*
X132701547Y-83908481D01*
X132754855Y-83747606D01*
X132764999Y-83648322D01*
X132765000Y-83648309D01*
X132765000Y-83600000D01*
X132065000Y-83600000D01*
X132065000Y-84324999D01*
X131541683Y-84324999D01*
X131565000Y-84324998D01*
X131565000Y-83100000D01*
X132065000Y-83100000D01*
X132764999Y-83100000D01*
X132764999Y-83051692D01*
X132764998Y-83051677D01*
X132754855Y-82952392D01*
X132701547Y-82791518D01*
X132701542Y-82791507D01*
X132612575Y-82647271D01*
X132612572Y-82647267D01*
X132492732Y-82527427D01*
X132492728Y-82527424D01*
X132348492Y-82438457D01*
X132348481Y-82438452D01*
X132187606Y-82385144D01*
X132088322Y-82375000D01*
X132065000Y-82375000D01*
X132065000Y-83100000D01*
X131565000Y-83100000D01*
X131565000Y-82374999D01*
X131541693Y-82375000D01*
X131541674Y-82375001D01*
X131442392Y-82385144D01*
X131281518Y-82438452D01*
X131281513Y-82438454D01*
X131169097Y-82507794D01*
X131101704Y-82526234D01*
X131035041Y-82505311D01*
X130990271Y-82451669D01*
X130980000Y-82402255D01*
X130980000Y-82144000D01*
X130999685Y-82076961D01*
X131052489Y-82031206D01*
X131104000Y-82020000D01*
X133026000Y-82020000D01*
X133093039Y-82039685D01*
G37*
%TD.AperFunction*%
%TD*%
M02*
